<svg width="512" height="512" viewBox="0 0 512 512" fill="none" xmlns="http://www.w3.org/2000/svg">
<path d="M60 326.762L21.813 317.774C10.621 341.866 0 368.929 0 400.108C0 430.69 10.191 457.425 21.813 482.441L151 452.037V512L196 487.993L241 512V452.067L369.179 482.46C380.285 458.553 391 431.419 391 400.108C391 394.711 390.625 389.339 389.997 384.104H512V0H60V326.762ZM38.93 445.635C35.028 434.624 29.9999 417.137 29.9999 400.108C29.9999 383.078 35.029 365.586 38.93 354.58L151 380.959V419.258L38.93 445.635ZM210.999 460.208L196 452.207L181 460.208V384.102H210.999V460.208ZM352.078 445.614L241 419.279V380.938L352.078 354.601C355.977 365.611 361.001 383.091 361.001 400.108C361.001 417.128 355.977 434.61 352.078 445.614ZM482.001 32.0086V352.096H383.054C378.137 336.046 374.172 328.466 369.179 317.757L224.354 352.096H167.636L90 333.822V32.0086H482.001Z" fill="white"/>
<path d="M181.137 78.0039H391.067V96.327H181.137V78.0039Z" fill="white"/>
<path d="M119.886 205.742H451.796V224.065H119.886V205.742Z" fill="white"/>
<path d="M181.137 269.611H391.067V287.934H181.137V269.611Z" fill="white"/>
<path d="M210.978 141.35H240.818V159.673H210.978V141.35Z" fill="white"/>
<path d="M271.182 141.35H301.022V159.673H271.182V141.35Z" fill="white"/>
<path d="M330.863 141.35H361.227V159.673H330.863V141.35Z" fill="white"/>
</svg>
