          <svg width="20" height="20" viewBox="0 0 512 512" fill="none" xmlns="http://www.w3.org/2000/svg">
            <path fill-rule="evenodd" clip-rule="evenodd" d="M344.753 213.193C273.38 213.193 273.291 284.286 273.291 284.654C273.291 284.654 268.413 355.813 344.753 355.813C344.753 355.813 408.403 359.447 408.403 306.289H375.719C375.719 306.289 376.793 326.305 345.827 326.305C345.827 326.305 313.143 328.48 313.143 293.964H409.498C409.498 293.964 420.102 213.193 344.753 213.193ZM312.774 269.065C312.774 269.065 316.754 240.444 345.463 240.444C374.278 240.444 373.803 269.065 373.803 269.065H312.774ZM231.1 250.765C231.1 250.765 259.447 248.7 259.447 215.368C259.447 182.121 236.264 165.822 206.823 165.822L110.01 165.82V351.921H206.823C206.823 351.921 265.959 353.748 265.959 296.952C265.959 296.952 268.496 250.765 231.1 250.765ZM152.674 198.873H206.824C206.824 198.873 219.963 198.873 219.963 218.247C219.963 237.624 212.262 240.444 203.47 240.444H152.674L152.674 198.873ZM204.115 318.868H152.674V269.064H206.824C206.824 269.064 226.476 268.893 226.394 294.695C226.394 316.435 211.811 318.691 204.115 318.868ZM304.709 176.787V199.688H381.506V176.787H304.709Z M402.774 0H109.226C48.9022 0 0 48.9022 0 109.226V402.774C0 463.098 48.9022 512 109.226 512H402.774C463.098 512 512 463.098 512 402.774V109.226C512 48.9022 463.098 0 402.774 0Z" fill="#fff"/>
            </svg>
