<svg width="512" height="512" viewBox="0 0 512 512" fill="none" xmlns="http://www.w3.org/2000/svg">
<path fill-rule="evenodd" clip-rule="evenodd" d="M109.226 0H402.774C463.098 0 512 48.9022 512 109.226V402.774C512 463.098 463.098 512 402.774 512H109.226C48.9022 512 0 463.098 0 402.774V109.226C0 48.9022 48.9022 0 109.226 0ZM265.171 67.2832C259.62 63.5723 252.38 63.5723 246.829 67.2832L71.8658 184.259L71.8294 184.283C71.1073 184.766 70.4307 185.301 69.8032 185.88C67.8199 187.712 66.3271 189.994 65.4386 192.514C65.2721 192.986 65.1269 193.466 65.0036 193.954C64.9615 194.12 64.922 194.287 64.8851 194.455C64.61 195.703 64.4844 196.96 64.5 198.205V313.795C64.4844 315.04 64.61 316.297 64.8851 317.545C64.9753 317.955 65.0811 318.36 65.2017 318.761C65.2758 319.007 65.3554 319.251 65.4408 319.492C66.3278 322.004 67.8157 324.28 69.7916 326.109C70.4223 326.693 71.1028 327.231 71.8294 327.717C71.8414 327.725 71.8533 327.733 71.8654 327.741L246.829 444.717C252.38 448.428 259.62 448.428 265.171 444.717L440.132 327.743C440.145 327.734 440.158 327.725 440.171 327.717C441.14 327.068 442.028 326.327 442.825 325.508C444.38 323.909 445.59 322.018 446.389 319.954C446.534 319.578 446.666 319.197 446.783 318.811C446.812 318.715 446.841 318.62 446.868 318.524C446.998 318.069 447.108 317.608 447.198 317.142C447.415 316.027 447.514 314.906 447.5 313.796V198.204C447.514 197.099 447.416 195.983 447.201 194.873C447.11 194.402 446.999 193.936 446.868 193.476C446.854 193.428 446.84 193.38 446.826 193.332C446.813 193.287 446.799 193.242 446.786 193.197C446.667 192.808 446.535 192.424 446.389 192.046C445.592 189.989 444.388 188.102 442.839 186.507C442.039 185.682 441.146 184.935 440.171 184.283L440.131 184.257L265.171 67.2832ZM414.5 283.267V228.733L373.364 256L414.5 283.267ZM343.5 236.204L376.243 214.5H310.757L343.5 236.204ZM201.243 214.5H135.757L168.5 236.204L201.243 214.5ZM198.364 256L256 217.796L313.636 256L256 294.204L198.364 256ZM138.636 256L97.5 228.733V283.267L138.636 256ZM135.367 330.5L239.5 400.121V330.5H135.367ZM272.5 400.121L376.633 330.5H272.5V400.121ZM168.5 275.796L201.243 297.5H135.757L168.5 275.796ZM310.757 297.5L343.5 275.796L376.243 297.5H310.757ZM272.5 111.879L376.633 181.5H272.5V111.879ZM239.5 181.5V111.879L135.367 181.5H239.5Z" fill="white"/>
</svg>
