<svg width="512" height="409" viewBox="0 0 512 409" fill="none" xmlns="http://www.w3.org/2000/svg">
<path d="M478.968 0H33.0322C24.2751 0.0111393 15.8799 3.39419 9.68759 9.4073C3.49532 15.4204 0.0114712 23.5727 0 32.0766V304.728C0.0114712 313.23 3.49532 321.383 9.68759 327.395C15.8799 333.409 24.2751 336.791 33.0322 336.804H203.252L192.237 368.88H165.161C162.971 368.88 160.871 369.724 159.322 371.229C157.773 372.732 156.903 374.773 156.903 376.9V392.938H82.5807C80.3906 392.938 78.2899 393.782 76.7412 395.285C75.1925 396.79 74.3225 398.829 74.3225 400.956C74.3225 403.082 75.1925 405.123 76.7412 406.626C78.2899 408.131 80.3906 408.976 82.5807 408.976H445.936C448.125 408.976 450.226 408.131 451.774 406.626C453.323 405.123 454.193 403.082 454.193 400.956C454.193 398.829 453.323 396.79 451.774 395.285C450.226 393.782 448.125 392.938 445.936 392.938H355.097V376.9C355.097 374.773 354.226 372.732 352.678 371.229C351.13 369.724 349.028 368.88 346.839 368.88H319.762L308.748 336.804H478.968C487.725 336.791 496.12 333.409 502.313 327.395C508.504 321.383 511.988 313.23 512 304.728V32.0766C511.988 23.5727 508.504 15.4204 502.313 9.4073C496.12 3.39419 487.725 0.0111393 478.968 0ZM338.582 384.918V392.938H173.419V384.918H338.582ZM209.652 368.88L220.666 336.804H291.334L302.348 368.88H209.652ZM495.483 304.728C495.479 308.979 493.736 313.054 490.639 316.063C487.545 319.068 483.346 320.76 478.968 320.766H33.0322C28.6536 320.76 24.456 319.068 21.36 316.063C18.2638 313.054 16.5219 308.979 16.5161 304.728V288.688H495.483V304.728ZM140.036 200.478L136.939 272.65H127.319L124.222 200.478H140.036ZM125.357 184.44L130.87 152.363H133.388L138.901 184.44H125.357ZM132.129 136.325C123.179 136.325 115.613 125.309 115.613 112.268C115.613 104.038 124.263 92.0796 132.108 83.6496C139.179 91.2678 148.645 103.447 148.645 112.268C148.645 125.309 141.079 136.325 132.129 136.325ZM221.997 120.287L222.968 122.181V128.306H189.935V122.181L190.906 120.287H221.997ZM199.164 104.249L206.451 90.1049L213.74 104.249H199.164ZM222.968 144.344V271.648C222.972 271.983 222.994 272.318 223.04 272.65H189.863C189.908 272.318 189.932 271.983 189.935 271.648V144.344H222.968ZM297.29 112.268H322.064V128.306H313.807C311.615 128.306 309.516 129.151 307.968 130.655C306.418 132.159 305.549 134.198 305.549 136.325C305.549 138.452 306.418 140.492 307.968 141.996C309.516 143.5 311.615 144.344 313.807 144.344H322.064V160.383H297.29C295.1 160.383 292.999 161.227 291.451 162.731C289.903 164.235 289.032 166.275 289.032 168.402C289.032 170.529 289.903 172.568 291.451 174.072C292.999 175.576 295.1 176.421 297.29 176.421H322.064V192.459H313.807C311.615 192.459 309.516 193.304 307.968 194.808C306.418 196.312 305.549 198.352 305.549 200.478C305.549 202.605 306.418 204.645 307.968 206.148C309.516 207.653 311.615 208.498 313.807 208.498H322.064V224.536H297.29C295.1 224.536 292.999 225.38 291.451 226.885C289.903 228.388 289.032 230.427 289.032 232.554C289.032 234.683 289.903 236.721 291.451 238.224C292.999 239.729 295.1 240.574 297.29 240.574H322.064V272.65H264.258V80.1913H322.064V96.2295H297.29C295.1 96.2295 292.999 97.0745 291.451 98.5783C289.903 100.082 289.032 102.122 289.032 104.249C289.032 106.376 289.903 108.415 291.451 109.919C292.999 111.423 295.1 112.268 297.29 112.268ZM396.386 208.498V271.648C396.39 271.983 396.415 272.318 396.46 272.65H363.282C363.327 272.318 363.352 271.983 363.354 271.648V208.498H396.386ZM363.354 192.459V186.335L379.871 154.258L396.386 186.335V192.459H363.354ZM495.483 272.65H412.832C412.877 272.318 412.899 271.983 412.903 271.648V184.44C412.901 183.195 412.604 181.967 412.037 180.851L387.262 132.737C386.574 131.405 385.52 130.285 384.213 129.503C382.908 128.72 381.405 128.306 379.871 128.306C378.337 128.306 376.834 128.72 375.527 129.503C374.223 130.285 373.168 131.405 372.48 132.737L347.705 180.851C347.136 181.967 346.839 183.195 346.839 184.44V271.648C346.841 271.983 346.866 272.318 346.911 272.65H338.582V72.1721C338.582 70.0455 337.711 68.0057 336.163 66.5019C334.612 64.9979 332.513 64.1529 330.322 64.1529H256C253.811 64.1529 251.709 64.9979 250.161 66.5019C248.613 68.0057 247.742 70.0455 247.742 72.1721V272.65H239.411C239.456 272.318 239.481 271.983 239.483 271.648V120.287C239.483 119.042 239.186 117.814 238.617 116.698L213.842 68.5836C213.156 67.252 212.099 66.1322 210.795 65.3496C209.49 64.5672 207.985 64.1527 206.451 64.1527C204.917 64.1527 203.414 64.5672 202.109 65.3496C200.803 66.1322 199.748 67.252 199.061 68.5836L174.286 116.698C173.717 117.814 173.421 119.042 173.419 120.287V271.648C173.423 271.983 173.447 272.318 173.492 272.65H153.466L156.893 192.79C156.903 192.61 156.893 192.429 156.893 192.239V191.998C156.874 191.716 156.839 191.435 156.79 191.156V191.136L149.151 146.62C158.741 139.593 165.161 126.823 165.161 112.268C165.161 91.6586 140.563 68.8343 137.755 66.2982C136.225 64.9208 134.215 64.1556 132.129 64.1556C130.043 64.1556 128.033 64.9208 126.503 66.2982C123.696 68.8343 99.0968 91.6586 99.0968 112.268C99.0968 126.823 105.517 139.593 115.107 146.62L107.468 191.136V191.156C107.419 191.435 107.384 191.716 107.365 191.998V192.239C107.365 192.429 107.355 192.61 107.365 192.79L110.792 272.65H16.5161V32.0766C16.5219 27.8247 18.2638 23.7484 21.36 20.7418C24.456 17.7354 28.6536 16.0438 33.0322 16.0383H478.968C483.346 16.0438 487.545 17.7354 490.639 20.7418C493.736 23.7484 495.479 27.8247 495.483 32.0766V272.65Z" fill="white"/>
</svg>
