<svg width="393" height="512" viewBox="0 0 393 512" fill="none" xmlns="http://www.w3.org/2000/svg">
<path d="M204.8 34.1338H187.733V51.2005H170.667V68.2671H187.733V85.3338H204.8V68.2671H221.867V51.2005H204.8V34.1338Z" fill="white"/>
<path d="M298.667 332.8H247.467V291.925C260.554 283.408 271.31 271.76 278.761 258.037C286.211 244.314 290.12 228.949 290.133 213.333V196.267H298.667C305.45 196.246 311.95 193.543 316.746 188.746C321.543 183.95 324.246 177.45 324.267 170.667V153.6C324.246 146.817 321.543 140.317 316.746 135.52C311.95 130.724 305.45 128.02 298.667 128H290.133V119.467H298.667C300.93 119.467 303.1 118.568 304.701 116.967C306.301 115.367 307.2 113.197 307.2 110.933V42.6667C307.2 31.3508 302.705 20.4983 294.703 12.4968C286.702 4.49523 275.849 0 264.533 0H128C116.684 0 105.832 4.49523 97.8301 12.4968C89.8286 20.4983 85.3333 31.3508 85.3333 42.6667V110.933C85.3333 113.197 86.2324 115.367 87.8327 116.967C89.433 118.568 91.6035 119.467 93.8667 119.467H102.4V128H93.8667C87.0834 128.02 80.5837 130.724 75.7871 135.52C70.9906 140.317 68.2869 146.817 68.2667 153.6V170.667C68.2869 177.45 70.9906 183.95 75.7871 188.746C80.5837 193.543 87.0834 196.246 93.8667 196.267H102.4V213.333C102.414 228.949 106.322 244.314 113.773 258.037C121.223 271.76 131.979 283.408 145.067 291.925V332.8H93.8667C68.9765 332.816 45.1104 342.71 27.5104 360.31C9.9104 377.91 0.0158241 401.777 0 426.667V503.467C0 505.73 0.899047 507.9 2.49936 509.501C4.09967 511.101 6.27015 512 8.53333 512H384C386.263 512 388.434 511.101 390.034 509.501C391.634 507.9 392.533 505.73 392.533 503.467V426.667C392.517 401.777 382.623 377.91 365.023 360.31C347.423 342.71 323.557 332.816 298.667 332.8V332.8ZM102.4 179.2H93.8667C91.6035 179.2 89.433 178.301 87.8327 176.701C86.2324 175.1 85.3333 172.93 85.3333 170.667V153.6C85.3333 151.337 86.2324 149.166 87.8327 147.566C89.433 145.966 91.6035 145.067 93.8667 145.067H102.4V179.2ZM273.067 167.168L261.461 178.773L197.291 170.752C196.611 170.667 195.923 170.667 195.243 170.752L131.072 178.773L119.467 167.168V119.467H273.067V167.168ZM298.667 145.067C300.93 145.067 303.1 145.966 304.701 147.566C306.301 149.166 307.2 151.337 307.2 153.6V170.667C307.2 172.93 306.301 175.1 304.701 176.701C303.1 178.301 300.93 179.2 298.667 179.2H290.133V145.067H298.667ZM102.4 42.6667C102.42 35.8834 105.124 29.3837 109.92 24.5871C114.717 19.7906 121.217 17.0869 128 17.0667H264.533C271.317 17.0869 277.816 19.7906 282.613 24.5871C287.409 29.3837 290.113 35.8834 290.133 42.6667V102.4H102.4V42.6667ZM119.467 213.333V191.232L121.941 193.792C122.86 194.706 123.977 195.397 125.205 195.811C126.433 196.225 127.739 196.352 129.024 196.181L196.267 187.819L263.509 196.181C263.846 196.252 264.19 196.281 264.533 196.267C266.8 196.273 268.978 195.384 270.592 193.792L273.067 191.232V213.333C273.048 227.457 269.135 241.302 261.758 253.346C254.381 265.39 243.826 275.166 231.253 281.6H230.4V282.027C219.81 287.354 208.121 290.129 196.267 290.129C184.412 290.129 172.723 287.354 162.133 282.027V281.6H161.28C148.707 275.166 138.152 265.39 130.775 253.346C123.398 241.302 119.485 227.457 119.467 213.333V213.333ZM187.733 494.933H17.0667V426.667C17.0983 406.308 25.1998 386.792 39.5958 372.396C53.9917 358 73.5077 349.898 93.8667 349.867H119.467V393.728C111.423 395.805 104.412 400.744 99.7495 407.62C95.0868 414.496 93.0919 422.837 94.1387 431.078C95.1855 439.32 99.2022 446.897 105.436 452.389C111.67 457.881 119.692 460.911 128 460.911C136.308 460.911 144.33 457.881 150.564 452.389C156.798 446.897 160.814 439.32 161.861 431.078C162.908 422.837 160.913 414.496 156.25 407.62C151.588 400.744 144.577 395.805 136.533 393.728V349.867H146.688C151.552 362.923 167.424 372.821 187.733 374.955V494.933ZM128 409.6C131.375 409.6 134.675 410.601 137.482 412.476C140.288 414.352 142.476 417.017 143.768 420.136C145.059 423.254 145.397 426.686 144.739 429.996C144.08 433.307 142.455 436.348 140.068 438.735C137.681 441.121 134.64 442.747 131.33 443.405C128.019 444.064 124.587 443.726 121.469 442.434C118.35 441.142 115.685 438.955 113.81 436.148C111.934 433.342 110.933 430.042 110.933 426.667C110.947 422.144 112.749 417.811 115.947 414.614C119.145 411.416 123.478 409.614 128 409.6ZM162.133 341.333V300.715C184.067 309.362 208.466 309.362 230.4 300.715V341.333C230.4 349.355 215.808 358.4 196.267 358.4C176.725 358.4 162.133 349.355 162.133 341.333ZM298.667 494.933H247.467V435.2H298.667V494.933ZM375.467 494.933H315.733V426.667C315.733 424.404 314.834 422.233 313.234 420.633C311.634 419.032 309.463 418.133 307.2 418.133H238.933C236.67 418.133 234.5 419.032 232.899 420.633C231.299 422.233 230.4 424.404 230.4 426.667V494.933H204.8V374.955C225.109 372.821 240.981 362.923 245.845 349.867H298.667C319.026 349.898 338.542 358 352.938 372.396C367.333 386.792 375.435 406.308 375.467 426.667V494.933Z" fill="white"/>
<path d="M162.133 162.133C164.397 162.133 166.567 161.234 168.167 159.634C169.768 158.034 170.667 155.863 170.667 153.6V145.067C170.667 142.803 169.768 140.633 168.167 139.033C166.567 137.432 164.397 136.533 162.133 136.533C159.87 136.533 157.7 137.432 156.099 139.033C154.499 140.633 153.6 142.803 153.6 145.067V153.6C153.6 155.863 154.499 158.034 156.099 159.634C157.7 161.234 159.87 162.133 162.133 162.133Z" fill="white"/>
<path d="M230.4 162.133C232.663 162.133 234.834 161.234 236.434 159.634C238.034 158.034 238.933 155.863 238.933 153.6V145.067C238.933 142.803 238.034 140.633 236.434 139.033C234.834 137.432 232.663 136.533 230.4 136.533C228.137 136.533 225.966 137.432 224.366 139.033C222.766 140.633 221.867 142.803 221.867 145.067V153.6C221.867 155.863 222.766 158.034 224.366 159.634C225.966 161.234 228.137 162.133 230.4 162.133Z" fill="white"/>
</svg>
