<svg width="512" height="512" viewBox="0 0 512 512" fill="none" xmlns="http://www.w3.org/2000/svg">
<path fill-rule="evenodd" clip-rule="evenodd" d="M211.373 307.954C153.843 307.071 97.7542 304.392 40.4628 299.902C39.9325 299.858 38.0057 299.876 37.5638 299.876C28.628 299.876 19.7011 305.674 12.9926 317.014C5.25893 330.104 0 351.184 0 375.003C0 398.823 5.25893 419.903 12.9926 432.993C19.7011 444.333 28.628 450.131 37.5638 450.131C38.0057 450.131 40.4186 450.14 41.2052 450.016C98.3375 440.638 154.162 434.823 211.365 432.799V503.162C211.365 506.512 213.256 509.57 216.252 511.064C219.249 512.566 222.828 512.239 225.506 510.233L255.557 487.695L285.608 510.233C288.286 512.239 291.866 512.566 294.862 511.064C297.859 509.57 299.75 506.512 299.75 503.162V432.825C356.82 434.876 413.794 440.683 470.67 450.016C471.456 450.14 473.869 450.131 474.311 450.131C483.256 450.131 492.174 444.333 498.882 432.993C506.616 419.903 511.875 398.823 511.875 375.003C511.875 351.184 506.616 330.104 498.882 317.014C492.174 305.674 483.256 299.876 474.311 299.876C473.869 299.876 471.942 299.858 471.412 299.902C414.368 304.375 357.139 307.053 299.741 307.945C299.335 293.654 287.624 282.199 273.234 282.199H237.88C223.491 282.199 211.78 293.662 211.373 307.954V307.954ZM282.073 416.147C274.348 420.884 265.271 423.615 255.557 423.615C245.844 423.615 236.767 420.884 229.042 416.147V485.485L250.254 469.576C253.401 467.216 257.714 467.216 260.86 469.576L282.073 485.485V416.147ZM474.311 317.553C478.076 317.553 480.843 321.239 483.662 326.011C490.185 337.051 494.198 354.913 494.198 375.003C494.198 395.093 490.185 412.956 483.662 423.995C480.843 428.768 478.076 432.454 474.311 432.454C470.546 432.454 467.779 428.768 464.96 423.995C458.437 412.956 454.424 395.093 454.424 375.003C454.424 354.913 458.437 337.051 464.96 326.011C467.779 321.239 470.546 317.553 474.311 317.553ZM37.5638 317.553C41.329 317.553 44.0954 321.239 46.9149 326.011C53.4378 337.051 57.4505 354.913 57.4505 375.003C57.4505 395.093 53.4378 412.956 46.9149 423.995C44.0954 428.768 41.329 432.454 37.5638 432.454C33.7985 432.454 31.0321 428.768 28.2126 423.995C21.6898 412.956 17.6771 395.093 17.6771 375.003C17.6771 354.913 21.6898 337.051 28.2126 326.011C31.0321 321.239 33.7985 317.553 37.5638 317.553ZM448.449 319.33C399.016 322.759 349.449 324.854 299.75 325.623V347.692C303.966 355.099 306.379 363.672 306.379 372.794C306.379 381.915 303.966 390.489 299.75 397.895V415.139C349.025 416.889 398.22 421.388 447.345 428.521C440.937 415.36 436.747 396.269 436.747 375.003C436.747 352.545 441.423 332.517 448.449 319.33V319.33ZM63.4341 319.33C70.4519 332.517 75.1275 352.545 75.1275 375.003C75.1275 396.269 70.9381 415.343 64.539 428.512C113.584 421.344 161.966 416.836 211.365 415.113V397.895C207.149 390.489 204.736 381.915 204.736 372.794C204.736 363.672 207.149 355.099 211.365 347.692V325.631C161.542 324.871 112.789 322.777 63.4341 319.33V319.33ZM255.557 339.649C273.853 339.649 288.702 354.498 288.702 372.794C288.702 391.09 273.853 405.938 255.557 405.938C237.262 405.938 222.413 391.09 222.413 372.794C222.413 354.498 237.262 339.649 255.557 339.649V339.649ZM282.073 329.441V308.714C282.073 303.836 278.113 299.876 273.234 299.876H237.88C233.001 299.876 229.042 303.836 229.042 308.714V329.441C236.767 324.703 245.844 321.972 255.557 321.972C265.271 321.972 274.348 324.703 282.073 329.441ZM96.4637 110.793V202.29C96.4637 202.413 96.4638 202.528 96.4726 202.652H87.6252C82.7463 202.652 78.7867 206.612 78.7867 211.491V268.941C78.7867 273.82 82.7463 277.78 87.6252 277.78H122.979C127.858 277.78 131.818 273.82 131.818 268.941V211.491C131.818 206.612 127.858 202.652 122.979 202.652H114.132C114.141 202.528 114.141 202.413 114.141 202.29V120.436L140.665 134.905C140.656 135.046 140.656 135.188 140.656 135.329V220.285C140.656 232.509 149.009 243.15 160.879 246.049L253.613 268.685C254.992 269.029 256.432 269.029 257.811 268.685C257.811 268.685 321.723 253.041 350.253 246.049C362.115 243.15 370.458 232.509 370.458 220.294C370.458 193.089 370.458 135.329 370.458 135.329C370.458 135.126 370.449 134.922 370.441 134.719L423.304 105.888C426.141 104.332 427.909 101.363 427.909 98.1276C427.909 94.8927 426.141 91.9141 423.304 90.3674L259.614 1.08051C256.971 -0.36017 253.79 -0.36017 251.147 1.08051L87.4573 90.3674C84.6201 91.9141 82.8524 94.8927 82.8524 98.1276C82.8524 101.363 84.6201 104.332 87.4573 105.888L96.4637 110.793V110.793ZM114.141 220.329V260.103H96.4637V220.329H114.141ZM126.356 89.2891H210.737C215.616 89.2891 219.576 93.2487 219.576 98.1276C219.576 103.006 215.616 106.966 210.737 106.966H126.356L255.381 177.347L278.767 164.585C283.054 162.251 288.428 163.833 290.761 168.111C293.095 172.398 291.512 177.772 287.235 180.105L259.614 195.166C256.971 196.607 253.79 196.607 251.147 195.166L158.333 144.548V220.285C158.333 224.36 161.118 227.904 165.077 228.876L255.699 251.008L346.046 228.885C349.997 227.913 352.781 224.368 352.781 220.294V144.353L313.821 165.601C309.534 167.943 304.16 166.361 301.827 162.074C299.494 157.797 301.067 152.423 305.354 150.089L400.615 98.1276L255.381 18.9078L126.356 89.2891V89.2891Z" fill="white"/>
</svg>
