<svg width="20" height="20" viewBox="0 0 512 512" fill="none" xmlns="http://www.w3.org/2000/svg">
  <path d="M269.376 257.961C170.699 289.859 118.189 376.8 113.855 384.222C83.2972 350.301 64.6684 305.435 64.6684 256.293C64.6684 254.334 64.7078 252.388 64.7663 250.444C73.1385 250.616 165.856 251.811 261.405 223.216C266.881 233.936 272.114 244.817 276.916 255.686C274.384 256.4 271.871 257.157 269.376 257.961ZM382.833 113.172C379.392 118.075 350.59 156.788 282.555 182.286C251.203 124.684 216.452 77.3615 211.164 70.2805C225.552 66.8121 240.563 64.9602 256.001 64.9602C304.615 64.9602 349.044 83.1954 382.833 113.172ZM245.594 193.794C156.096 217.56 77.2693 217.218 68.711 217.105C81.118 157.734 121.129 108.389 174.657 83.1426C179.7 90.0594 213.893 137.439 245.594 193.794ZM288.66 287.749C289.08 287.603 289.499 287.467 289.92 287.324C316.781 357.126 327.89 415.629 330.739 432.417C307.764 442.2 282.506 447.622 256 447.622C211.768 447.622 171 432.53 138.56 407.232C142.002 400.193 180.742 325.355 288.66 287.749ZM425.999 0H85.9996C38.6995 0 0 38.6995 0 85.9996V425.999C0 473.3 38.6995 511.999 85.9996 511.999H425.999C473.3 511.999 512 473.3 512 425.999V85.9996C511.999 38.6995 473.299 0 425.999 0ZM256 479.999C132.486 479.999 31.9996 379.515 31.9996 256C31.9996 132.486 132.486 32.0006 256 32.0006C379.516 31.9996 479.999 132.486 479.999 256C479.999 379.515 379.516 479.999 256 479.999ZM325.731 278.482C385.689 268.884 438.364 284.597 444.911 286.662C436.381 339.898 405.826 385.876 362.902 414.898C360.941 403.259 350.758 347.251 325.731 278.482ZM297.266 210.738C368.007 181.855 400.071 140.756 404.102 135.297C430.749 167.856 446.884 209.324 447.308 254.483C440.999 253.149 377.744 240.319 314.08 248.325C312.74 245.048 311.367 241.757 309.959 238.45C305.986 229.121 301.718 219.852 297.266 210.738Z" fill="white"/>
  </svg>
