<svg width="521" height="512" viewBox="0 0 521 512" fill="none" xmlns="http://www.w3.org/2000/svg">
<path d="M24.3943 495.737H8.13142C3.25257 495.737 0 498.99 0 503.869C0 508.748 3.25257 512 8.13142 512H24.3943C29.2731 512 32.5257 508.748 32.5257 503.869C32.5257 498.99 29.2731 495.737 24.3943 495.737Z" fill="white"/>
<path d="M512.279 495.736H267.524C265.897 479.473 263.458 436.377 262.645 384.336C264.271 385.149 265.897 386.775 267.524 388.401C274.029 394.907 282.16 398.159 291.105 398.159C300.049 398.159 308.994 394.093 314.686 387.588C317.938 383.523 322.817 381.896 327.696 381.083C332.575 381.083 337.454 383.523 340.706 386.775C347.212 393.28 355.343 396.533 364.288 396.533C373.232 396.533 382.177 392.467 387.869 386.775C391.121 382.709 396 381.083 400.879 380.27C405.758 380.27 410.637 382.709 413.889 385.962C420.394 392.467 428.526 395.72 437.47 395.72C446.415 395.72 455.359 391.654 461.051 385.149C464.304 381.083 469.183 379.457 474.062 378.644C478.941 378.644 483.819 381.083 487.072 384.336C493.577 390.841 501.709 394.093 510.653 394.907C515.532 394.907 518.785 391.654 518.785 386.775C518.785 381.896 515.532 378.644 510.653 378.644C505.774 378.644 500.895 376.204 497.643 372.952C491.138 366.447 483.006 363.194 474.062 362.381C465.117 362.381 456.173 366.447 450.481 372.952C447.228 377.017 442.349 378.644 437.47 379.457C432.591 379.457 427.713 377.017 424.46 373.765C417.955 367.26 409.824 364.007 400.879 364.007C391.934 364.007 382.99 368.073 377.298 374.578C374.045 378.644 369.166 380.27 364.288 381.083C359.409 381.083 354.53 378.644 351.277 375.391C344.772 368.886 336.641 365.633 327.696 365.633C318.752 365.633 309.807 369.699 304.115 376.204C300.863 380.27 295.984 381.896 291.105 382.709C286.226 382.709 281.347 380.27 278.095 377.017C274.029 372.952 268.337 369.699 262.645 368.073C262.645 288.385 267.524 191.621 292.731 134.701C294.357 130.635 292.731 125.757 288.665 124.13C285.413 122.504 282.16 123.317 279.721 125.757C278.095 127.383 234.998 168.04 200.033 250.167C198.407 254.233 200.033 259.112 204.099 260.738C208.164 262.364 213.043 260.738 214.669 256.672C227.68 225.773 244.756 195.687 264.271 168.853C256.953 199.752 252.074 230.652 249.635 261.551H227.68C222.801 261.551 219.548 264.804 219.548 269.683C219.548 274.562 222.801 277.814 227.68 277.814H248.821C248.008 291.638 247.195 304.648 247.195 318.471H219.548C214.669 318.471 211.417 321.724 211.417 326.603C211.417 331.481 214.669 334.734 219.548 334.734H246.382C244.756 407.917 249.635 473.781 251.261 497.362H170.76C169.947 472.968 170.76 448.574 173.199 424.18H213.856C218.735 424.18 221.988 420.927 221.988 416.048C221.988 411.169 218.735 407.917 213.856 407.917H174.826C179.704 366.447 188.649 325.789 202.472 285.946C204.099 281.88 201.659 277.001 197.593 275.375C193.528 273.748 188.649 276.188 187.023 280.254C177.265 308.713 169.134 337.987 164.255 367.26C156.936 368.886 150.431 372.139 145.552 377.017C141.487 379.457 135.795 381.896 130.103 381.896C124.411 381.896 118.719 379.457 114.653 375.391C100.016 362.381 78.0616 362.381 63.4251 375.391C55.2937 383.523 41.4702 383.523 33.3388 375.391C26.8337 368.886 17.8891 365.633 8.13142 365.633C3.25257 365.633 0 368.886 0 373.765C0 378.644 3.25257 381.896 8.13142 381.896C13.8234 381.896 19.5154 384.336 23.5811 388.401C30.0863 394.907 39.0308 398.159 48.7885 398.159C58.5462 398.159 67.4908 394.907 73.9959 388.401C78.0616 384.336 83.7536 381.896 89.4456 381.896C95.1376 381.896 100.83 384.336 104.895 388.401C119.532 401.412 141.487 401.412 156.123 388.401C157.75 386.775 160.189 385.149 161.815 384.336C156.123 420.927 153.684 458.332 154.497 495.736H105.708C100.83 495.736 97.577 498.989 97.577 503.868C97.577 508.746 100.83 511.999 105.708 511.999H512.279C517.158 511.999 520.411 508.746 520.411 503.868C520.411 498.989 517.158 495.736 512.279 495.736Z" fill="white"/>
<path d="M105.708 122.506L35.7778 172.107C31.7121 174.547 30.8989 179.426 34.1515 183.491C35.7778 185.118 38.2172 186.744 40.6566 186.744H211.416C216.295 186.744 219.548 183.491 219.548 178.612C219.548 173.734 216.295 170.481 211.416 170.481H65.8641L115.466 135.516C134.168 120.879 143.926 113.561 160.189 113.561H235.811C239.876 113.561 243.129 111.122 243.942 107.056C244.755 102.99 242.316 98.9245 238.25 97.2982L65.8641 55.0148L92.6977 43.6308C96.7634 42.0046 98.3897 37.1257 96.7634 33.06C95.1372 28.9943 90.2583 27.368 86.1926 28.9943L37.4041 50.136C33.3384 50.9491 31.7121 55.828 33.3384 59.8937C34.1515 62.3331 36.5909 63.9594 39.0304 64.7725L169.946 97.2982H161.002C139.047 97.2982 126.037 106.243 105.708 122.506Z" fill="white"/>
<path d="M125.224 28.994L154.497 16.7969L265.084 72.0905C269.15 73.7168 274.029 72.0905 275.655 68.8379C277.281 65.5854 275.655 59.8934 272.402 58.2671L158.562 1.34716C156.123 0.534019 153.684 0.534019 152.057 1.34716L119.532 15.1706C115.466 16.7969 113.84 21.6757 115.466 25.7414C116.279 28.994 121.158 30.6203 125.224 28.994Z" fill="white"/>
<path d="M338.266 71.2775L408.196 16.797L474.874 41.1912L348.024 97.298H341.518C336.64 97.298 333.387 100.551 333.387 105.429C333.387 110.308 336.64 113.561 341.518 113.561H406.57C411.449 113.561 414.701 110.308 414.701 105.429C414.701 100.551 411.449 97.298 406.57 97.298H387.868L499.268 47.6963C503.334 46.0701 504.96 41.1912 503.334 37.1255C502.521 35.4992 500.894 33.8729 498.455 33.0598L409.009 0.534116C406.57 -0.279026 403.317 -0.279026 400.878 1.34726L327.695 58.2672C324.443 60.7066 323.629 66.3986 326.069 69.6512C330.134 72.9038 335.013 73.7169 338.266 71.2775Z" fill="white"/>
<path d="M322.005 161.536C322.005 161.536 322.818 161.536 322.005 161.536L408.198 193.249L424.461 236.345L304.116 179.425C300.05 177.799 295.171 179.425 293.545 183.491C291.919 187.557 293.545 192.435 297.611 194.062L435.845 259.113C439.911 260.739 444.79 259.113 446.416 255.047C447.229 253.421 447.229 250.982 446.416 248.542L422.022 183.491C421.208 181.051 419.582 179.425 417.143 178.612L371.607 162.349H496.017C500.896 162.349 504.149 159.097 504.149 154.218C504.149 152.592 503.336 150.152 502.523 149.339L461.865 100.55C460.239 98.111 457.8 97.2979 455.36 97.2979H439.098C434.219 97.2979 430.966 100.55 430.966 105.429C430.966 110.308 434.219 113.561 439.098 113.561H451.295L478.128 146.086H325.258C322.818 146.9 318.752 148.526 317.939 152.591C317.126 155.844 318.752 159.91 322.005 161.536Z" fill="white"/>
</svg>
