          <svg width="20" height="20" viewBox="0 0 512 512" fill="none" xmlns="http://www.w3.org/2000/svg">
            <path d="M483.832 28.1641C465.055 9.38918 442.447 0 415.997 0H95.9995C69.5575 0 46.9437 9.38918 28.1641 28.1641C9.38921 46.9425 0 69.5562 0 95.9992V416.003C0 442.447 9.38921 465.057 28.1641 483.832C46.9425 502.612 69.5575 512 95.9995 512H170.666C175.551 512 179.22 511.831 181.664 511.506C184.106 511.168 186.549 509.724 188.995 507.167C191.442 504.612 192.661 500.89 192.661 496.003C192.661 495.339 192.602 487.775 192.493 473.331C192.379 458.885 192.325 447.442 192.325 438.996L184.657 440.33C179.769 441.216 173.602 441.608 166.157 441.495C158.715 441.385 150.991 440.609 142.992 439.163C134.989 437.717 127.547 434.386 120.657 429.166C113.772 423.941 108.883 417.108 105.993 408.666L102.659 400.996C100.437 395.889 96.9393 390.221 92.1605 384.003C87.382 377.777 82.5495 373.555 77.6612 371.333L75.3272 369.667C73.7733 368.556 72.3292 367.217 70.9947 365.663C69.6625 364.104 68.663 362.547 67.9964 360.996C67.3298 359.437 67.8833 358.159 69.6625 357.156C71.4417 356.157 74.6606 355.663 79.3295 355.663L85.9937 356.662C90.4397 357.548 95.9363 360.212 102.495 364.659C109.05 369.103 114.438 374.879 118.661 381.988C123.775 391.101 129.936 398.042 137.161 402.821C144.381 407.603 151.661 409.994 158.993 409.994C166.325 409.994 172.658 409.436 177.993 408.33C183.323 407.217 188.324 405.545 192.992 403.325C194.992 388.436 200.438 376.986 209.324 368.988C196.658 367.652 185.271 365.655 175.156 362.988C165.048 360.317 154.602 355.986 143.826 349.985C133.045 343.985 124.102 336.545 116.99 327.649C109.88 318.756 104.045 307.09 99.4926 292.652C94.9381 278.203 92.6602 261.535 92.6602 242.647C92.6602 215.76 101.441 192.867 118.996 173.98C110.772 153.759 111.548 131.095 121.328 105.981C127.772 103.981 137.33 105.482 149.995 110.482C162.663 115.486 171.937 119.765 177.829 123.316C183.72 126.867 188.44 129.87 191.996 132.317C212.667 126.539 233.999 123.651 255.998 123.651C277.996 123.651 299.331 126.539 320.003 132.317L332.669 124.317C341.338 118.982 351.56 114.094 363.338 109.651C375.117 105.208 384.115 103.984 390.339 105.985C400.335 131.098 401.231 153.762 393.001 173.982C410.555 192.872 419.338 215.763 419.338 242.65C419.338 261.54 417.06 278.264 412.506 292.818C407.954 307.372 402.068 319.043 394.842 327.821C387.622 336.599 378.619 343.982 367.844 349.988C357.066 355.986 346.621 360.323 336.507 362.985C326.395 365.652 315.008 367.66 302.344 368.993C313.889 378.99 319.667 394.762 319.667 416.323V495.992C319.667 499.771 320.218 502.825 321.329 505.157C322.447 507.489 324.224 509.097 326.666 509.993C329.121 510.879 331.277 511.434 333.171 511.654C335.066 511.877 337.782 511.99 341.338 511.99H416.005C442.447 511.99 465.06 502.6 483.832 483.822C502.61 465.044 512 442.429 512 415.987V95.9992C511.997 69.5562 502.607 46.9389 483.832 28.1641Z" fill="white"/>
            </svg>
