<svg width="300" height="300" viewBox="0 0 300 300" fill="none" xmlns="http://www.w3.org/2000/svg">
<g clip-path="url(#clip0_67_492)">
<rect width="300" height="300" fill="#1F1E1C"/>
<path d="M151.8 285.8C133.4 285.8 116.333 282.333 100.6 275.4C84.8667 268.2 71.2667 258.733 59.8 247L79.8 223.8C89.1333 233.667 100.067 241.667 112.6 247.8C125.4 253.667 138.6 256.6 152.2 256.6C169.533 256.6 183 252.733 192.6 245C202.2 237 207 226.6 207 213.8C207 204.733 205 197.533 201 192.2C197.267 186.867 192.067 182.333 185.4 178.6C179 174.867 171.667 171.133 163.4 167.4L125.8 151C117.533 147.533 109.267 143 101 137.4C93 131.8 86.2 124.6 80.6 115.8C75.2667 107 72.6 96.2 72.6 83.4C72.6 70.0667 76.0667 58.2 83 47.8C90.2 37.1333 100.067 28.8667 112.6 23C125.133 16.8666 139.267 13.8 155 13.8C170.733 13.8 185.267 16.8666 198.6 23C211.933 28.8667 223.267 36.6 232.6 46.2L214.6 67.8C206.6 60.0667 197.667 54.0667 187.8 49.8C178.2 45.2667 167.267 43 155 43C140.333 43 128.467 46.4667 119.4 53.4C110.6 60.3333 106.2 69.6667 106.2 81.4C106.2 89.6667 108.333 96.6 112.6 102.2C117.133 107.533 122.733 111.933 129.4 115.4C136.067 118.867 142.867 122.067 149.8 125L187 141C197.133 145.267 206.2 150.467 214.2 156.6C222.467 162.467 229 169.8 233.8 178.6C238.6 187.133 241 197.933 241 211C241 224.867 237.4 237.533 230.2 249C223 260.2 212.733 269.133 199.4 275.8C186.067 282.467 170.2 285.8 151.8 285.8Z" fill="white"/>
<path d="M149.48 113.08C145.34 113.08 141.5 112.3 137.96 110.74C134.42 109.12 131.36 106.99 128.78 104.35L133.28 99.13C135.38 101.35 137.84 103.15 140.66 104.53C143.54 105.85 146.51 106.51 149.57 106.51C153.47 106.51 156.5 105.64 158.66 103.9C160.82 102.1 161.9 99.76 161.9 96.88C161.9 94.84 161.45 93.22 160.55 92.02C159.71 90.82 158.54 89.8 157.04 88.96C155.6 88.12 153.95 87.28 152.09 86.44L143.63 82.75C141.77 81.97 139.91 80.95 138.05 79.69C136.25 78.43 134.72 76.81 133.46 74.83C132.26 72.85 131.66 70.42 131.66 67.54C131.66 64.54 132.44 61.87 134 59.53C135.62 57.13 137.84 55.27 140.66 53.95C143.48 52.57 146.66 51.88 150.2 51.88C153.74 51.88 157.01 52.57 160.01 53.95C163.01 55.27 165.56 57.01 167.66 59.17L163.61 64.03C161.81 62.29 159.8 60.94 157.58 59.98C155.42 58.96 152.96 58.45 150.2 58.45C146.9 58.45 144.23 59.23 142.19 60.79C140.21 62.35 139.22 64.45 139.22 67.09C139.22 68.95 139.7 70.51 140.66 71.77C141.68 72.97 142.94 73.96 144.44 74.74C145.94 75.52 147.47 76.24 149.03 76.9L157.4 80.5C159.68 81.46 161.72 82.63 163.52 84.01C165.38 85.33 166.85 86.98 167.93 88.96C169.01 90.88 169.55 93.31 169.55 96.25C169.55 99.37 168.74 102.22 167.12 104.8C165.5 107.32 163.19 109.33 160.19 110.83C157.19 112.33 153.62 113.08 149.48 113.08Z" fill="white"/>
<path d="M149.88 242.08C144.96 242.08 140.58 240.82 136.74 238.3C132.96 235.78 129.99 232.21 127.83 227.59C125.73 222.97 124.68 217.51 124.68 211.21C124.68 204.91 125.73 199.51 127.83 195.01C129.99 190.45 132.96 186.97 136.74 184.57C140.58 182.11 144.96 180.88 149.88 180.88C154.86 180.88 159.24 182.11 163.02 184.57C166.8 186.97 169.77 190.45 171.93 195.01C174.09 199.51 175.17 204.91 175.17 211.21C175.17 217.51 174.09 222.97 171.93 227.59C169.77 232.21 166.8 235.78 163.02 238.3C159.24 240.82 154.86 242.08 149.88 242.08ZM149.88 235.51C153.42 235.51 156.48 234.52 159.06 232.54C161.7 230.5 163.74 227.68 165.18 224.08C166.62 220.42 167.34 216.13 167.34 211.21C167.34 203.89 165.75 198.1 162.57 193.84C159.39 189.58 155.16 187.45 149.88 187.45C144.6 187.45 140.37 189.58 137.19 193.84C134.01 198.1 132.42 203.89 132.42 211.21C132.42 216.13 133.14 220.42 134.58 224.08C136.02 227.68 138.06 230.5 140.7 232.54C143.34 234.52 146.4 235.51 149.88 235.51Z" fill="white"/>
</g>
<defs>
<clipPath id="clip0_67_492">
<rect width="300" height="300" fill="white"/>
</clipPath>
</defs>
</svg>
