<svg width="521" height="512" viewBox="0 0 521 512" fill="none" xmlns="http://www.w3.org/2000/svg">
<path d="M277.035 0C263.228 0 251.806 11.3411 251.806 25.1484V159.477C251.806 173.284 263.228 184.641 277.035 184.641H358.626L354.413 201.428H352.561C338.753 201.428 327.396 212.785 327.397 226.593V235.019H217.051V197.215H226.658C233.711 197.215 239.232 202.802 239.232 209.855C239.25 214.49 243.022 218.233 247.658 218.215C252.268 218.198 256.001 214.465 256.019 209.855C256.019 193.73 242.783 180.428 226.658 180.428H217.051V172.067C217.069 167.432 213.326 163.659 208.69 163.641H143.936C139.275 163.623 135.492 167.406 135.509 172.067V235.019H109.181V223.675C109.181 208.231 96.4277 195.478 80.9843 195.478H76.5089L49.2955 135.329C59.9313 127.714 61.9418 114.604 55.9513 104.149L88.3779 71.7715L92.8205 85.0668C93.2201 86.2973 93.899 87.4194 94.8041 88.3458L112.28 105.821C115.559 109.109 120.885 109.109 124.165 105.821L159.051 70.935C162.338 67.6554 162.338 62.3297 159.051 59.0503L141.575 41.5749C140.65 40.6697 139.528 39.991 138.296 39.5926L112.149 30.8545C109.136 29.8308 105.803 30.6002 103.542 32.8369L100.739 35.6411L92.6893 27.641C88.8336 24.093 83.9165 24.9698 80.8696 27.624C77.5706 30.9057 77.5706 36.2451 80.8696 39.5264L88.8532 47.5265L86.0663 50.3146L86.0335 50.39L43.7381 92.7021C26.7811 86.2761 8.95651 98.4854 8.42622 115.701C8.4264 129.449 19.6833 140.834 33.4101 140.931L58.1972 195.686C44.1804 197.249 33.0987 209.303 33.0986 223.703V235.047H25.2297C11.4226 235.047 -6.35444e-05 246.388 2.65124e-10 260.195V285.408C-6.35444e-05 299.215 11.4226 310.572 25.2297 310.572H68.4596L73.0171 337.884L17.2952 500.918C15.4584 506.353 19.4929 511.988 25.2297 512H58.8038C62.2688 511.985 65.3685 509.841 66.6072 506.606L90.6402 443.59L100.87 505C101.553 509.054 105.071 512.017 109.181 512H142.69C147.865 512.014 151.819 507.388 151.001 502.278L119.05 310.559H401.43L369.479 502.266C368.666 507.343 372.567 511.951 377.708 511.988H411.299C415.403 511.996 418.912 509.034 419.594 504.988L429.84 443.561L453.857 506.594C455.096 509.83 458.195 511.972 461.66 511.988H495.25C500.987 511.975 505.022 506.34 503.185 500.906L447.463 337.872L452.021 310.559H495.25C509.058 310.559 520.398 299.203 520.398 285.395V260.182C520.398 246.375 509.058 235.035 495.25 235.035H444.873V226.608C444.873 212.801 433.533 201.444 419.725 201.444H417.873L413.66 184.657H495.251C509.058 184.657 520.398 173.301 520.398 159.493V25.1638C520.398 11.3565 509.058 0.0153907 495.251 0.0153907L277.035 0ZM277.035 16.7874H495.25C499.985 16.7874 503.611 20.4133 503.611 25.1484V134.264H268.593V25.1484C268.593 20.4133 272.3 16.7874 277.035 16.7874ZM111.788 48.3938L131.116 54.9025L141.214 65.0004L118.231 88.0503L108.067 77.8863L101.624 58.5586C105.02 55.1574 108.388 51.7829 111.788 48.3938ZM188.428 85.3131C184.55 87.873 183.491 93.0998 186.067 96.9684C189.548 102.189 189.692 104.524 189.477 106.133C189.263 107.742 188.166 109.673 186.067 112.821C183.969 115.968 180.902 120.382 180.067 126.641C179.233 132.901 181.154 139.976 186.067 147.346C188.634 151.219 193.859 152.269 197.723 149.691C201.586 147.125 202.635 141.913 200.067 138.052C196.587 132.831 196.443 130.431 196.658 128.822C196.872 127.213 197.969 125.33 200.067 122.182C202.166 119.035 205.315 114.623 206.149 108.363C206.984 102.103 204.98 95.0437 200.067 87.674C197.396 83.3633 191.429 83.2015 188.428 85.3131ZM164.297 98.87C160.069 98.8448 156.473 101.944 155.903 106.133C155.689 107.742 154.641 109.673 152.542 112.821C150.444 115.968 147.311 120.382 146.477 126.641C145.642 132.901 147.629 139.976 152.542 147.346C155.106 151.178 160.281 152.225 164.133 149.691C168.001 147.131 169.058 141.917 166.493 138.052C163.013 132.83 162.869 130.414 163.083 128.805C163.298 127.196 164.395 125.329 166.493 122.182C168.592 119.035 171.724 114.622 172.559 108.362C173.159 103.762 169.914 99.5477 165.313 98.9523C164.976 98.8767 164.637 98.8767 164.297 98.8515L164.297 98.87ZM268.593 151.051H503.611V159.477C503.611 164.212 499.985 167.854 495.25 167.854H369.528H277.035C272.3 167.854 268.593 164.212 268.593 159.477V151.051ZM152.296 180.428H200.264V235.019H152.296V180.428ZM375.889 184.641H396.348L400.561 201.428H371.692L375.889 184.641ZM80.9843 212.28C87.3554 212.28 92.3942 217.304 92.3943 223.675V235.019H49.8857V223.675C49.8858 217.503 54.6019 212.581 60.6891 212.28H80.9843ZM352.561 218.215H419.725C424.46 218.215 428.086 221.858 428.086 226.593V235.019H344.2V226.593C344.2 221.858 347.826 218.215 352.561 218.215ZM25.2297 251.806H495.25C499.985 251.806 503.611 255.432 503.611 260.166V285.38C503.611 290.115 499.985 293.757 495.25 293.757H25.2297C20.495 293.757 16.787 290.115 16.787 285.38V260.166C16.787 255.432 20.495 251.806 25.2297 251.806ZM85.4434 310.544H102.05L132.854 495.186H116.247L85.4434 310.544ZM441.643 372.742L483.48 495.186H467.431C456.648 467.248 446.231 438.797 435.25 411.087L441.643 372.742Z" fill="white"/>
</svg>
