<svg width="512" height="419" viewBox="0 0 512 419" fill="none" xmlns="http://www.w3.org/2000/svg">
<path d="M437.527 167.587C435.058 167.587 432.69 168.568 430.944 170.314C429.199 172.06 428.218 174.428 428.218 176.897V307.224H18.6182V83.8057H335.127C337.596 83.8057 339.964 82.8249 341.71 81.0791C343.455 79.3333 344.436 76.9655 344.436 74.4966C344.436 72.0277 343.455 69.6599 341.71 67.9141C339.964 66.1683 337.596 65.1875 335.127 65.1875H9.30908C6.84016 65.1875 4.47236 66.1683 2.72657 67.9141C0.980778 69.6599 0 72.0277 0 74.4966V363.078C0 365.547 0.980778 367.915 2.72657 369.661C4.47236 371.407 6.84016 372.387 9.30908 372.387H166.819L144.477 400.315H102.4C99.931 400.315 97.5632 401.295 95.8174 403.041C94.0716 404.787 93.0908 407.155 93.0908 409.624C93.0908 412.093 94.0716 414.46 95.8174 416.206C97.5632 417.952 99.931 418.933 102.4 418.933H344.436C346.905 418.933 349.273 417.952 351.019 416.206C352.764 414.46 353.745 412.093 353.745 409.624C353.745 407.155 352.764 404.787 351.019 403.041C349.273 401.295 346.905 400.315 344.436 400.315H302.359L280.017 372.387H437.527C439.996 372.387 442.364 371.407 444.11 369.661C445.855 367.915 446.836 365.547 446.836 363.078V176.897C446.836 174.428 445.855 172.06 444.11 170.314C442.364 168.568 439.996 167.587 437.527 167.587ZM278.528 400.315H168.308L190.65 372.387H256.186L278.528 400.315ZM428.218 353.769H18.6182V325.842H428.218V353.769Z" fill="white"/>
<path d="M511.72 28.8822C511.571 28.1676 511.32 27.478 510.976 26.8342C510.308 25.4941 509.316 24.3421 508.09 23.4829C507.708 23.2013 507.303 22.9522 506.88 22.7382C506.45 22.473 505.978 22.284 505.483 22.1797L440.506 0.489494C438.574 -0.163165 436.48 -0.163165 434.548 0.489494L369.571 22.1797C369.077 22.284 368.604 22.473 368.174 22.7382C367.751 22.9522 367.346 23.2013 366.964 23.4829C365.738 24.3421 364.746 25.4941 364.078 26.8342C363.734 27.478 363.483 28.1676 363.334 28.8822C363.143 29.5798 363.049 30.3002 363.054 31.0233V117.97C363.069 119.917 363.685 121.812 364.818 123.395C365.951 124.978 367.546 126.172 369.385 126.814L434.548 148.504L435.665 148.783C436.894 149.031 438.16 149.031 439.389 148.783L440.506 148.504L505.67 126.814C507.508 126.172 509.103 124.978 510.236 123.395C511.37 121.812 511.985 119.917 512 117.97V31.0233C512.005 30.3002 511.911 29.5798 511.72 28.8822V28.8822ZM437.527 19.1077L473.274 31.0233L437.527 42.9389L401.78 31.0233L437.527 19.1077ZM381.673 43.9629L428.218 59.5091V126.814L381.673 111.268V43.9629ZM493.382 111.268L446.836 126.814V59.5091L493.382 43.9629V111.268Z" fill="white"/>
<path d="M223.418 288.606C220.949 288.606 218.581 287.625 216.835 285.879C215.09 284.133 214.109 281.765 214.109 279.296V111.733C214.109 109.264 215.09 106.896 216.835 105.15C218.581 103.405 220.949 102.424 223.418 102.424C225.887 102.424 228.255 103.405 230 105.15C231.746 106.896 232.727 109.264 232.727 111.733V279.296C232.727 281.765 231.746 284.133 230 285.879C228.255 287.625 225.887 288.606 223.418 288.606Z" fill="white"/>
<path d="M293.236 228.096C290.767 228.096 288.4 227.114 286.655 225.369L263.382 202.096C261.637 200.35 260.656 197.983 260.656 195.514C260.656 193.046 261.637 190.678 263.382 188.933L286.655 165.66C288.41 163.964 290.762 163.026 293.203 163.047C295.643 163.068 297.978 164.047 299.704 165.773C301.43 167.499 302.409 169.834 302.43 172.275C302.452 174.716 301.513 177.067 299.818 178.823L283.126 195.514L299.818 212.205C301.119 213.507 302.005 215.166 302.364 216.971C302.723 218.777 302.539 220.648 301.835 222.349C301.13 224.05 299.937 225.504 298.407 226.527C296.876 227.55 295.077 228.096 293.236 228.096Z" fill="white"/>
<path d="M367.708 228.096C365.868 228.096 364.068 227.55 362.538 226.527C361.007 225.504 359.814 224.05 359.11 222.349C358.405 220.648 358.221 218.777 358.58 216.971C358.939 215.166 359.825 213.507 361.127 212.205L377.818 195.514L361.127 178.823C359.431 177.067 358.493 174.716 358.514 172.275C358.535 169.834 359.514 167.499 361.24 165.773C362.966 164.047 365.301 163.068 367.742 163.047C370.183 163.026 372.534 163.964 374.29 165.66L397.563 188.933C399.308 190.678 400.288 193.046 400.288 195.514C400.288 197.983 399.308 200.35 397.563 202.096L374.29 225.369C372.545 227.114 370.177 228.096 367.708 228.096V228.096Z" fill="white"/>
<path d="M321.164 228.097C319.642 228.098 318.144 227.726 316.8 227.013C315.456 226.301 314.307 225.27 313.454 224.01C312.6 222.751 312.069 221.302 311.905 219.789C311.741 218.277 311.951 216.747 312.515 215.335L331.134 168.789C332.05 166.496 333.839 164.66 336.109 163.686C338.378 162.712 340.942 162.679 343.235 163.595C345.529 164.511 347.365 166.3 348.339 168.57C349.313 170.839 349.346 173.403 348.43 175.697L329.812 222.242C329.121 223.971 327.928 225.453 326.386 226.497C324.845 227.541 323.025 228.098 321.164 228.097V228.097Z" fill="white"/>
<path d="M74.4727 130.351H46.5454C44.0765 130.351 41.7087 129.37 39.9629 127.624C38.2171 125.878 37.2363 123.51 37.2363 121.042C37.2363 118.573 38.2171 116.205 39.9629 114.459C41.7087 112.713 44.0765 111.732 46.5454 111.732H74.4727C76.9416 111.732 79.3094 112.713 81.0552 114.459C82.801 116.205 83.7817 118.573 83.7817 121.042C83.7817 123.51 82.801 125.878 81.0552 127.624C79.3094 129.37 76.9416 130.351 74.4727 130.351Z" fill="white"/>
<path d="M130.327 158.278H46.5454C44.0765 158.278 41.7087 157.298 39.9629 155.552C38.2171 153.806 37.2363 151.438 37.2363 148.969C37.2363 146.5 38.2171 144.133 39.9629 142.387C41.7087 140.641 44.0765 139.66 46.5454 139.66H130.327C132.796 139.66 135.164 140.641 136.91 142.387C138.655 144.133 139.636 146.5 139.636 148.969C139.636 151.438 138.655 153.806 136.91 155.552C135.164 157.298 132.796 158.278 130.327 158.278Z" fill="white"/>
<path d="M102.4 204.823H46.5454C44.0765 204.823 41.7087 203.842 39.9629 202.097C38.2171 200.351 37.2363 197.983 37.2363 195.514C37.2363 193.045 38.2171 190.677 39.9629 188.932C41.7087 187.186 44.0765 186.205 46.5454 186.205H102.4C104.869 186.205 107.237 187.186 108.982 188.932C110.728 190.677 111.709 193.045 111.709 195.514C111.709 197.983 110.728 200.351 108.982 202.097C107.237 203.842 104.869 204.823 102.4 204.823Z" fill="white"/>
<path d="M74.4727 279.297H46.5454C44.0765 279.297 41.7087 278.316 39.9629 276.57C38.2171 274.825 37.2363 272.457 37.2363 269.988C37.2363 267.519 38.2171 265.151 39.9629 263.405C41.7087 261.659 44.0765 260.679 46.5454 260.679H74.4727C76.9416 260.679 79.3094 261.659 81.0552 263.405C82.801 265.151 83.7817 267.519 83.7817 269.988C83.7817 272.457 82.801 274.825 81.0552 276.57C79.3094 278.316 76.9416 279.297 74.4727 279.297Z" fill="white"/>
<path d="M176.977 258.771H149.05C146.581 258.771 144.213 257.791 142.467 256.045C140.722 254.299 139.741 251.931 139.741 249.462C139.741 246.993 140.722 244.626 142.467 242.88C144.213 241.134 146.581 240.153 149.05 240.153H176.977C179.446 240.153 181.814 241.134 183.56 242.88C185.305 244.626 186.286 246.993 186.286 249.462C186.286 251.931 185.305 254.299 183.56 256.045C181.814 257.791 179.446 258.771 176.977 258.771Z" fill="white"/>
<path d="M130.327 232.751H102.4C99.931 232.751 97.5632 231.77 95.8174 230.024C94.0716 228.279 93.0908 225.911 93.0908 223.442C93.0908 220.973 94.0716 218.605 95.8174 216.859C97.5632 215.114 99.931 214.133 102.4 214.133H130.327C132.796 214.133 135.164 215.114 136.91 216.859C138.655 218.605 139.636 220.973 139.636 223.442C139.636 225.911 138.655 228.279 136.91 230.024C135.164 231.77 132.796 232.751 130.327 232.751Z" fill="white"/>
</svg>
