<svg width="512" height="512" viewBox="0 0 512 512" fill="none" xmlns="http://www.w3.org/2000/svg">
<path fill-rule="evenodd" clip-rule="evenodd" d="M109.226 0H402.774C463.098 0 512 48.9022 512 109.226V402.774C512 463.098 463.098 512 402.774 512H109.226C48.9022 512 0 463.098 0 402.774V109.226C0 48.9022 48.9022 0 109.226 0ZM336.166 364.562C336.877 364.782 337.585 365.001 338.29 365.221C342.117 359.204 345.847 352.52 349.529 345.441C349.382 342.581 349.217 339.704 348.972 336.696C344.261 340.177 339.468 343.561 334.675 346.83C333.693 352.602 332.58 358.077 331.418 363.079C333.017 363.586 334.599 364.076 336.166 364.562ZM217.947 134.65C215.281 136.53 212.549 138.492 209.816 140.6C209.26 142.709 208.72 144.932 208.197 147.27C211.093 147.155 214.021 147.041 216.949 146.943C218.651 144 220.319 141.189 221.972 138.541C221.366 142.415 220.827 146.714 220.336 151.34C224.606 149.82 228.892 148.316 233.113 146.877C234.372 145.521 235.616 144.197 236.859 142.905C232.949 136.955 229.35 131.822 226.225 127.703C223.624 128.634 220.99 129.648 218.324 130.678C218.193 131.953 218.062 133.261 217.947 134.65ZM414.574 269.51C420.071 263.903 424.962 258.525 429.152 253.442C429.503 254.723 429.804 255.978 430.103 257.229C430.389 258.421 430.673 259.61 431 260.814C428.448 355.201 351.23 431 256.147 431C207.477 431 163.469 411.139 131.764 379.116C135.723 379.049 139.731 378.952 143.87 378.822C145.719 371.351 148.189 362.687 151.396 352.764C140.778 347.485 130.586 341.862 121.261 336.075C119.511 331.53 117.842 326.921 116.272 322.229C109.09 315.673 102.562 309.037 96.8362 302.497C93.0735 301.404 89.687 300.291 86.5787 299.164C83.0777 285.318 81 270.9 81 255.975C81 248.783 81.5726 241.705 82.4069 234.741C85.6298 230.965 89.3598 227.025 93.6951 223.02C99.6501 218.28 106.554 213.359 114.243 208.406C110.415 194.299 107.601 181.336 105.261 169.518C104.676 169.988 104.123 170.459 103.566 170.933C103.251 171.201 102.936 171.47 102.611 171.741C108.648 160.805 115.895 150.67 124.026 141.336C124.877 149.934 125.94 159.121 127.789 169.812C130.423 170.171 133.155 170.548 135.92 170.94C137.179 165.578 138.537 160.412 140.009 155.525C142.267 154.184 144.525 152.844 146.848 151.536C147.453 149.738 148.075 148.005 148.713 146.289C151.756 142.807 154.88 139.538 158.054 136.514C157.433 134.47 156.86 132.492 156.337 130.645C154.733 127.016 153.375 123.779 152.181 120.788C150.153 120.477 148.157 120.183 146.144 119.905C176.214 95.614 214.446 81 256.131 81C296.982 81 334.51 95.0909 364.285 118.516C354.453 118.99 332.171 119.791 313.766 120.412C300.499 119.3 287.411 118.385 274.846 117.813C269.905 118.549 264.72 119.448 259.322 120.543C257.194 122.488 254.904 125.006 252.515 128.062C249.734 129.223 246.888 130.449 243.976 131.789C243.583 134.65 243.19 137.87 242.83 141.352C243.338 141.572 243.846 141.79 244.356 142.009C245.437 142.473 246.523 142.939 247.624 143.428C251.108 141.99 254.577 140.633 257.964 139.309C259.582 142.823 261.267 146.632 262.969 150.735C265.407 150.024 267.813 149.334 270.204 148.649C270.781 148.483 271.358 148.318 271.934 148.152C272.078 147.84 272.222 147.53 272.365 147.221C274.034 143.616 275.598 140.239 277.103 137.167C275.124 135.794 273.145 134.486 271.181 133.195C272.753 130.939 274.258 128.83 275.696 126.967C277.479 125.741 279.231 124.564 280.932 123.534C281.558 123.586 282.189 123.642 282.818 123.697C283.387 123.748 283.955 123.798 284.514 123.845C283.648 125.169 282.878 126.379 281.914 128.013C280.703 128.471 279.476 128.978 278.25 129.484C278.822 130.122 279.394 130.809 279.935 131.511C279.853 131.642 279.788 131.757 279.721 131.887C279.802 131.887 279.882 131.891 279.963 131.895C280.049 131.9 280.137 131.904 280.229 131.904C281.571 133.604 282.911 135.402 284.285 137.298C287.558 136.726 290.813 136.17 293.971 135.664C295.247 136.562 296.539 137.478 297.832 138.442C294.266 139.129 290.715 139.848 287.035 140.6C288.065 142.742 289.112 144.981 290.158 147.335C288.642 146.941 287.12 146.542 285.603 146.144C284.599 145.88 283.598 145.617 282.602 145.357C281.485 147.751 280.353 150.262 279.174 152.879C278.71 153.908 278.238 154.954 277.758 156.015C271.15 155.803 264.507 155.607 257.866 155.476C256.703 152.779 255.542 150.179 254.397 147.695C253.893 148.204 253.389 148.711 252.882 149.221C251.876 150.233 250.861 151.255 249.816 152.321C250.274 154.005 250.749 155.754 251.207 157.535C250.064 157.606 248.913 157.681 247.76 157.756C246.521 157.836 245.279 157.917 244.041 157.993C241.015 161.197 237.971 164.548 234.863 168.03C229.415 169.599 223.935 171.25 218.471 172.918C219.681 175.468 220.908 178.116 222.152 180.813C224.278 184.115 226.438 187.515 228.63 190.981C221.301 190.589 214.07 190.262 206.921 189.967C206.855 196.555 206.888 203.437 206.97 210.482C212.647 211.251 218.373 212.035 224.164 212.853C228.123 206.919 232.098 201.1 236.025 195.444C241.505 192.828 246.986 190.229 252.417 187.728C254.191 189.612 255.956 191.525 257.741 193.459C258.309 194.075 258.879 194.693 259.453 195.313C262.708 199.399 266.029 203.584 269.382 207.851L270.146 206.998C272.271 204.628 274.359 202.298 276.433 200.021C271.836 197.029 267.238 194.103 262.708 191.226C262.585 189.795 262.486 188.374 262.388 186.964C262.303 185.732 262.218 184.51 262.118 183.298C264.262 184.279 266.421 185.276 268.614 186.289C272.229 188.938 275.894 191.635 279.574 194.397C279.494 197.039 279.353 199.711 279.21 202.414L279.198 202.636C282.012 205.987 284.81 209.371 287.622 212.804C288.833 208.537 290.011 204.32 291.158 200.184C292.596 200.92 294.069 201.639 295.557 202.342C297.636 205.677 299.729 209.06 301.808 212.444C306.657 213.32 311.476 214.217 316.231 215.102C317.508 215.339 318.781 215.576 320.048 215.812C319.731 217.002 319.418 218.197 319.104 219.397C318.56 221.476 318.012 223.571 317.43 225.685C315.422 226.887 313.425 228.102 311.406 229.33L310.707 229.755C301.84 227.352 292.843 224.966 283.73 222.612C282.665 224.087 281.604 225.578 280.536 227.077C279.356 228.735 278.167 230.403 276.956 232.077C275.275 230.99 273.598 229.904 271.923 228.819C267.601 226.019 263.298 223.232 258.994 220.487C258.659 219.102 258.327 217.719 257.995 216.339C257.418 213.941 256.844 211.551 256.263 209.175C241.718 211.61 227.076 214.177 212.745 216.825C205.154 225.783 197.596 234.904 190.283 244.026C188.86 256.254 187.633 268.546 186.651 280.577C194.144 288.081 201.833 295.552 209.62 302.874C223.084 302.27 236.859 301.533 250.781 300.685C254.937 313.026 259.043 324.926 262.919 335.812C261.59 341.185 260.248 346.281 258.976 351.113C258.762 351.927 258.55 352.734 258.34 353.533C264.491 365.629 270.151 375.814 274.912 383.267C281.244 382.532 287.607 381.764 294.021 380.931C301.659 373.623 309.709 364.174 317.855 353.254C321.847 350.689 325.807 348.04 329.782 345.311C329.815 337.611 329.635 329.274 329.292 320.561C336.44 314.366 343.54 308.024 350.413 301.582C352.948 294.08 355.337 286.413 357.546 278.713C351.049 282.131 344.342 285.612 337.438 289.094C331.189 272.797 323.991 255.616 316.515 238.583C318.003 238.337 319.509 238.092 321.014 237.863C328.294 252.167 335.214 266.568 341.512 280.381C354.747 271.93 367.312 263.56 378.698 255.599C374.853 252.167 370.845 248.652 366.689 245.089C363.648 246.789 360.473 248.538 357.283 250.27C355.237 244.925 353.078 239.596 350.869 234.267C352.108 233.533 353.322 232.799 354.555 232.054L355.059 231.75L355.215 231.894C358.074 234.542 360.899 237.159 363.63 239.792C373.087 241.95 382.068 244.042 390.346 246.102C393.897 251.235 397.25 256.285 400.375 261.24C403.189 270.541 405.609 279.662 407.753 288.44C410.01 285.465 412.154 282.555 414.232 279.629C414.269 278.529 414.308 277.423 414.347 276.315C414.428 274.049 414.509 271.773 414.574 269.51Z" fill="white"/>
</svg>
