<svg width="512" height="370" viewBox="0 0 512 370" fill="none" xmlns="http://www.w3.org/2000/svg">
<path d="M23.4646 0.00151423C16.3696 0.00151423 10.1761 3.80691 6.17749 8.99228C2.17881 14.1776 0 20.8158 0 27.9936V238.367C0 245.544 2.1788 252.199 6.17749 257.384C10.1761 262.57 16.3696 266.359 23.4646 266.359H172.402L167.81 298.395H126.395C114.882 298.395 104.152 304.407 98.2246 314.275L91.6752 325.158C85.4269 335.56 93.4207 349.609 105.55 349.609H327.841C339.971 349.609 347.9 335.56 341.651 325.158L335.118 314.275C329.191 304.407 318.509 298.395 306.996 298.395H265.533L260.973 266.359H338.11C342.708 266.377 346.44 262.645 346.422 258.047C346.404 253.474 342.683 249.782 338.11 249.799H23.4646C22.132 249.799 20.8092 249.174 19.3085 247.227C16.3178 242.127 16.5838 238.46 16.5594 232.738H338.11C342.683 232.756 346.404 229.063 346.422 224.49C346.44 219.893 342.708 216.161 338.11 216.179H16.5594V27.9929C16.555 21.478 20.4576 16.7058 23.4646 16.5597H409.862C411.194 16.5597 412.582 17.1207 414.083 19.0665C415.583 21.014 416.832 24.2417 416.832 27.9929V100.295C416.849 104.848 420.542 108.533 425.095 108.542C429.668 108.56 433.39 104.867 433.407 100.295V27.9929C433.407 20.8153 431.229 14.1769 427.23 8.99152C423.231 3.8064 416.957 0 409.862 0L23.4646 0.00151423ZM114.541 86.1137L107.135 78.7235C106.647 78.2348 106.872 78.2296 107.022 77.8649C107.171 77.5027 106.997 77.4455 107.685 77.4455H118.212C125.984 77.4455 132.443 70.9678 132.443 63.1988V45.5398C132.443 37.7713 125.982 31.2924 118.212 31.2924H107.685C103.137 31.3098 99.4552 34.9921 99.4375 39.5397C99.4209 44.1123 103.112 47.8342 107.685 47.8521H115.884V60.8699H107.685C100.318 60.8702 94.1291 65.6412 91.6754 71.5756C89.2216 77.5102 90.2679 85.2557 95.4756 90.4634L101.216 96.2046L91.9826 105.438L86.2418 99.6813C81.034 94.4736 73.2881 93.4433 67.3537 95.8972C61.4193 98.3508 56.6646 104.539 56.6644 111.906V120.041H43.6464V111.906C43.663 107.302 39.9225 103.568 35.3182 103.595C30.7454 103.613 27.0529 107.334 27.0708 111.906V122.37C27.0708 130.138 33.5495 136.601 41.3178 136.601H58.9768C66.7429 136.601 73.2237 130.137 73.2237 122.37V111.906C73.2237 111.219 73.3455 111.329 73.7089 111.177C74.0724 111.028 74.0128 110.865 74.5013 111.376L81.8916 118.783C87.3865 124.278 96.5785 124.278 102.073 118.783L114.606 106.314C120.1 100.82 120.099 91.6271 114.606 86.1326H114.573L114.541 86.1137ZM207.866 35.0772C200.095 35.0772 193.619 41.5524 193.619 49.3239V59.7706C193.619 60.4628 193.496 60.366 193.134 60.5148C192.772 60.6637 192.766 60.7953 192.277 60.3165L184.887 52.9187C179.392 47.423 170.281 47.423 164.786 52.9187L152.253 65.3869C146.759 70.8821 146.758 80.0577 152.253 85.5527L159.643 92.9588C160.132 93.4476 159.971 93.4527 159.821 93.8174C159.671 94.1771 159.849 94.3012 159.158 94.3012H148.647C140.875 94.3012 134.4 100.76 134.4 108.532V126.207C134.4 133.978 140.875 140.438 148.647 140.438H159.158C159.849 140.438 159.671 140.512 159.821 140.877C159.971 141.239 160.132 141.247 159.643 141.735L152.253 149.126C146.759 154.621 146.758 163.796 152.253 169.291L164.786 181.76C170.281 187.255 179.392 187.255 184.887 181.76L192.277 174.369C192.766 173.881 192.772 174.042 193.134 174.171C193.496 174.32 193.619 174.195 193.619 174.9V185.347C193.619 193.118 200.095 199.593 207.866 199.593H225.525C233.297 199.593 239.772 193.118 239.772 185.347V174.9C239.772 174.208 239.896 174.322 240.257 174.171C240.619 174.022 240.561 173.858 241.05 174.369L248.456 181.76C253.951 187.255 263.127 187.255 268.622 181.76L281.09 169.291C286.584 163.796 286.584 154.621 281.09 149.126L273.7 141.735C273.211 141.247 273.421 141.241 273.571 140.877C273.719 140.517 273.558 140.438 274.25 140.438H284.761C292.533 140.438 298.992 133.978 298.992 126.207V108.532C298.992 100.76 292.533 94.3012 284.761 94.3012H274.25C273.558 94.3012 273.72 94.1771 273.57 93.8174C273.422 93.4552 273.211 93.4476 273.699 92.9588L281.09 85.5527C286.584 80.0577 286.585 70.8816 281.09 65.3869L268.622 52.9187C263.127 47.423 253.951 47.423 248.456 52.9187L241.05 60.3089C240.561 60.7976 240.619 60.6536 240.257 60.5073C239.895 60.3584 239.772 60.4329 239.772 59.763V49.3163C239.772 41.5448 233.297 35.0697 225.525 35.0697L207.866 35.0772ZM210.195 51.6528H223.213V59.7706C223.213 67.1355 227.969 73.3389 233.902 75.7965C239.835 78.2526 247.582 77.2701 252.79 72.0609L258.596 66.3197L267.765 75.4891L262.024 81.2947C256.816 86.5024 255.766 94.1852 258.224 100.118C260.681 106.051 266.884 110.807 274.249 110.807H282.432V123.889H274.249C266.885 123.89 260.681 128.662 258.224 134.595C255.766 140.528 256.816 148.259 262.024 153.467L267.765 159.224L258.531 168.442L252.79 162.701C247.582 157.494 239.835 156.459 233.902 158.917C227.969 161.373 223.213 167.562 223.213 174.927V183.109H210.195V174.927C210.195 167.562 205.422 161.374 199.489 158.917C193.557 156.46 185.809 157.493 180.601 162.701L174.86 168.442L165.627 159.224L171.384 153.467C176.591 148.259 177.56 140.528 175.103 134.595C172.646 128.662 166.523 123.89 159.158 123.889H150.959V110.807H159.158C166.523 110.807 172.646 106.051 175.103 100.118C177.56 94.1852 176.591 86.5024 171.384 81.2947L165.578 75.4891L174.86 66.3197L180.601 72.0609C185.809 77.2686 193.557 78.2541 199.489 75.7965C205.422 73.3404 210.195 67.1355 210.195 59.7706V51.6528ZM216.663 96.0267C228.538 96.0267 237.993 105.482 237.993 117.357C237.993 129.231 228.537 138.686 216.663 138.686C204.789 138.686 195.334 129.231 195.333 117.357C195.333 105.482 204.789 96.0267 216.663 96.0267ZM387.804 125.119C374.184 125.119 362.997 136.37 362.997 149.99V306.836C362.993 306.985 362.993 307.148 362.997 307.305V344.596C362.997 358.216 374.184 369.403 387.804 369.403H487.193C500.814 369.403 512 358.216 512 344.596V149.99C512 136.37 500.814 125.119 487.193 125.119H387.804ZM387.804 141.678H487.193C491.864 141.678 495.441 145.319 495.441 149.99V298.993H379.492V149.99C379.492 145.319 383.133 141.678 387.804 141.678ZM433.585 201.754L425.338 234.889C424.235 239.308 426.909 243.788 431.321 244.916C435.745 246.017 440.227 243.336 441.348 238.917L449.66 205.797C450.758 201.359 448.05 196.87 443.612 195.772C438.581 194.667 435.258 196.811 433.585 201.754ZM402.65 206.218L394.338 214.465C391.084 217.703 391.084 222.969 394.338 226.206L402.65 234.453C405.879 237.664 411.096 237.664 414.325 234.453C417.536 231.224 417.536 226.007 414.325 222.777L411.884 220.336L414.325 217.895C417.536 214.666 417.536 209.449 414.325 206.22C409.597 202.662 405.775 203.319 402.65 206.22V206.218ZM460.591 206.218C457.38 209.448 457.38 214.664 460.591 217.894L463.05 220.335L460.591 222.776C457.38 226.005 457.38 231.222 460.591 234.451C463.828 237.705 469.095 237.705 472.332 234.451L480.579 226.204C483.833 222.966 483.833 217.7 480.579 214.463L472.332 206.216C467.59 202.64 463.73 203.331 460.591 206.216V206.218ZM189.107 266.359H244.235L248.812 298.395H184.515L189.107 266.359ZM126.395 314.954H306.996C312.723 314.954 317.993 317.945 320.936 322.845L327.049 333.05H106.343L112.455 322.845C115.398 317.946 120.668 314.954 126.395 314.954ZM379.492 315.566H495.441V344.594C495.441 349.265 491.864 352.841 487.193 352.841H387.804C383.133 352.841 379.492 349.265 379.492 344.594V315.566Z" fill="white"/>
</svg>
