<svg width="512" height="512" viewBox="0 0 512 512" fill="none" xmlns="http://www.w3.org/2000/svg">
<path d="M204.528 307.578C125.516 228.267 104.169 113.006 140.459 14.2538C143.981 4.66877 133.128 -3.85423 124.63 1.82577C108.78 12.4198 93.7768 24.8238 79.9138 39.0488C-26.4732 148.211 -25.1112 323.73 82.9058 431.284C191.26 539.174 366.228 538.904 474.248 430.474C487.531 417.14 499.178 402.788 509.197 387.669C514.84 379.153 506.283 368.359 496.693 371.908C398.325 408.31 283.526 386.876 204.528 307.578V307.578Z" fill="white"/>
<path d="M496.693 371.909C476.658 379.323 455.941 384.336 434.984 386.952C326.324 480.381 162.731 475.728 59.547 372.986C39.788 353.312 23.615 331.357 11 307.957C23.419 353.23 47.398 395.93 82.906 431.286C191.26 539.176 366.228 538.906 474.248 430.476C487.531 417.142 499.178 402.79 509.197 387.671C514.84 379.154 506.283 368.36 496.693 371.909V371.909Z" fill="white"/>
<path d="M368.687 128.8L409.158 134.703C416.232 135.735 419.064 144.407 413.958 149.403L384.613 178.116C382.589 180.096 381.666 182.941 382.143 185.729L389.062 226.224C390.267 233.279 382.841 238.648 376.503 235.303L340.393 216.247C337.866 214.913 334.842 214.913 332.315 216.247L296.205 235.303C289.867 238.648 282.441 233.279 283.646 226.224L290.565 185.729C291.041 182.941 290.119 180.096 288.095 178.116L258.75 149.403C253.644 144.407 256.476 135.735 263.55 134.703L304.021 128.8C306.84 128.389 309.275 126.617 310.53 124.064L328.595 87.3223C331.759 80.8873 340.948 80.8873 344.112 87.3223L362.177 124.064C363.433 126.617 365.868 128.388 368.687 128.8V128.8Z" fill="white"/>
<path d="M413.959 149.403C419.065 144.407 416.233 135.735 409.159 134.703L378.741 130.266L370.337 138.489C362.624 146.035 359.107 156.877 360.923 167.504L362.746 178.175C365.16 192.304 350.287 203.055 337.595 196.357L328.391 191.5C318.759 186.417 307.234 186.417 297.602 191.5L288.786 196.152L283.648 226.224C282.443 233.279 289.869 238.648 296.207 235.303L332.317 216.247C334.844 214.913 337.868 214.913 340.395 216.247L376.505 235.303C382.843 238.648 390.269 233.279 389.064 226.224L382.145 185.729C381.669 182.941 382.591 180.096 384.615 178.116L413.959 149.403Z" fill="white"/>
</svg>
