<svg width="512" height="406" viewBox="0 0 512 406" fill="none" xmlns="http://www.w3.org/2000/svg">
<path d="M501.333 117.333C498.504 117.333 495.791 118.457 493.791 120.458C491.79 122.458 490.667 125.171 490.667 128V277.333H21.3333V21.3333H384C386.829 21.3333 389.542 20.2095 391.542 18.2091C393.543 16.2088 394.667 13.4956 394.667 10.6667C394.667 7.83769 393.543 5.12457 391.542 3.12419C389.542 1.1238 386.829 0 384 0H10.6667C7.83769 0 5.12458 1.1238 3.1242 3.12419C1.12381 5.12457 0 7.83769 0 10.6667V341.333C0 344.162 1.12381 346.875 3.1242 348.876C5.12458 350.876 7.83769 352 10.6667 352H191.147L165.547 384H117.333C114.504 384 111.791 385.124 109.791 387.124C107.79 389.125 106.667 391.838 106.667 394.667C106.667 397.496 107.79 400.209 109.791 402.209C111.791 404.21 114.504 405.333 117.333 405.333H394.667C397.496 405.333 400.209 404.21 402.209 402.209C404.21 400.209 405.333 397.496 405.333 394.667C405.333 391.838 404.21 389.125 402.209 387.124C400.209 385.124 397.496 384 394.667 384H346.453L320.853 352H501.333C504.162 352 506.875 350.876 508.876 348.876C510.876 346.875 512 344.162 512 341.333V128C512 125.171 510.876 122.458 508.876 120.458C506.875 118.457 504.162 117.333 501.333 117.333ZM319.147 384H192.853L218.453 352H293.547L319.147 384ZM490.667 330.667H21.3333V298.667H490.667V330.667Z" fill="white"/>
<path d="M180.395 177.374H140.633V251.929H180.395V177.374Z" fill="white"/>
<path d="M276.026 142.581H236.264V251.928H276.026V142.581Z" fill="white"/>
<path d="M371.656 177.374H331.894V251.929H371.656V177.374Z" fill="white"/>
<path d="M467.287 142.581H427.524V251.928H467.287V142.581Z" fill="white"/>
<path d="M256.065 73.9355L352.045 146.365L484.715 33.2771L470.792 10.623L351.238 112.538L257.287 41.6325L90.9424 142.401L101.928 167.195L256.065 73.9355Z" fill="white"/>
</svg>
