          <svg width="20" height="20" viewBox="0 0 512 512" fill="none" xmlns="http://www.w3.org/2000/svg">
            <path d="M245.328 312.111C244.006 317.641 242.768 322.512 241.529 327.382L237.564 343.891C235.995 350.66 234.839 357.594 232.774 364.115C230.14 373.544 226.941 382.806 223.194 391.851C219.369 400.032 215.095 407.996 210.393 415.707C206.676 422.063 202.134 428.254 198.252 434.363C197.591 435.353 195.857 436.261 195.031 435.931C194.443 435.626 193.93 435.193 193.53 434.665C193.13 434.136 192.852 433.526 192.718 432.877C189.5 411.256 189.083 389.31 191.479 367.582C192.636 358.75 194.948 350.165 196.765 341.415C197.921 335.912 199.078 330.133 200.234 324.08C201.803 317.064 203.372 309.882 204.942 302.783C207.254 292.3 209.567 281.899 211.962 271.498C213.861 263.243 215.761 254.988 217.826 246.238C218.131 242.522 217.447 238.791 215.843 235.425C212.277 223.237 211.432 210.416 213.366 197.866C214.495 188.635 217.563 179.746 222.368 171.781C225.188 166.609 229.394 162.325 234.515 159.408C239.635 156.492 245.467 155.06 251.357 155.272C256.455 155.546 261.326 157.464 265.242 160.738C269.158 164.012 271.907 168.466 273.078 173.432C275.755 184.583 275.355 196.252 271.922 207.194C268.783 219.411 265.397 231.463 262.341 243.597C259.847 251.054 258.104 258.742 257.138 266.545C256.471 272.221 257.438 277.97 259.925 283.117C262.412 288.263 266.316 292.594 271.178 295.601C274.995 298.047 279.29 299.651 283.776 300.305C288.263 300.96 292.837 300.651 297.194 299.399C308.911 296.214 319.05 288.842 325.688 278.679C333.865 266.926 339.75 253.735 343.031 239.8C347.572 222.626 349.63 204.891 349.143 187.135C349.139 170.972 344.276 155.184 335.185 141.817C328.276 131.753 318.654 123.853 307.435 119.034C300.393 115.499 292.74 113.342 284.888 112.678C276.278 111.733 267.612 111.402 258.955 111.687C246.609 112.772 234.625 116.424 223.773 122.409C212.922 128.393 203.441 136.578 195.939 146.439C189.533 154.498 184.51 163.564 181.073 173.267C175.806 188.045 173.778 203.781 175.127 219.411C175.748 230.502 179.819 241.122 186.772 249.788C188.75 252.281 190.011 255.267 190.419 258.423C190.826 261.579 190.365 264.787 189.084 267.701C188.176 271.002 187.35 274.304 186.607 277.689C185.368 283.715 181.982 286.769 175.044 283.384C161.897 276.756 151.641 265.536 146.22 251.852C138.163 232.913 135.312 212.167 137.961 191.758C140.404 168.893 148.963 147.109 162.738 128.692C172.682 115.333 185.208 104.105 199.573 95.6731C210.826 88.9903 222.98 83.9586 235.665 80.7322C252.024 76.5441 268.968 75.1211 285.797 76.5223C298.413 77.5492 310.788 80.5578 322.467 85.4373C338.465 92.0207 352.823 102.035 364.525 114.772C376.227 127.509 384.988 142.659 390.19 159.152C392.779 166.28 394.418 173.718 395.063 181.274C395.063 190.107 396.384 198.939 395.889 207.607C395.393 216.274 393.494 226.097 392.09 235.26C389.571 250.298 384.752 264.859 377.802 278.432C372.07 290.196 364.359 300.89 355.007 310.047C345.609 319.281 334.346 326.402 321.971 330.931C310.271 335.288 297.699 336.788 285.301 335.306C278.094 334.576 271.114 332.375 264.792 328.839C258.47 325.304 252.942 320.509 248.549 314.752C247.558 314.092 246.402 313.101 245.328 312.111Z M402.774 0H109.226C48.9022 0 0 48.9022 0 109.226V402.774C0 463.098 48.9022 512 109.226 512H402.774C463.098 512 512 463.098 512 402.774V109.226C512 48.9022 463.098 0 402.774 0Z" fill="#fff"/>
            </svg>
