<svg width="507" height="512" viewBox="0 0 507 512" fill="none" xmlns="http://www.w3.org/2000/svg">
<path fill-rule="evenodd" clip-rule="evenodd" d="M287.243 397.95L264.058 484.504C263.053 488.24 264.613 492.197 267.891 494.25C271.169 496.303 275.408 495.977 278.333 493.448L311.212 464.976L325.452 506.067C326.712 509.689 330.167 512.086 334 511.998C337.825 511.901 341.164 509.345 342.239 505.662L356.982 455.362L371.54 505.635C372.606 509.319 375.937 511.892 379.779 511.989C383.613 512.095 387.076 509.698 388.336 506.067L402.577 464.976L435.455 493.448C438.381 495.977 442.619 496.303 445.897 494.25C449.175 492.197 450.735 488.24 449.731 484.504L426.546 397.95C443.456 380.493 453.872 356.709 453.872 330.502C453.872 276.976 410.419 233.523 356.894 233.523C303.369 233.523 259.916 276.976 259.916 330.502C259.916 356.709 270.332 380.493 287.243 397.95ZM302.126 410.516L288.511 461.319L309.511 443.139C311.723 441.227 314.737 440.531 317.565 441.289C320.385 442.046 322.65 444.153 323.61 446.92L333.084 474.246L346.936 426.969C330.422 425.286 315.133 419.443 302.126 410.516ZM411.662 410.516C398.726 419.399 383.516 425.224 367.107 426.942L380.758 474.105L390.178 446.92C391.138 444.153 393.403 442.046 396.223 441.289C399.052 440.531 402.065 441.227 404.277 443.139L425.277 461.319L411.662 410.516ZM0 273.178V405.361C0 412.376 2.78465 419.099 7.74592 424.052C12.6984 429.013 19.4221 431.798 26.4366 431.798C83.5661 431.798 259.96 431.798 259.96 431.798C264.824 431.798 268.772 427.85 268.772 422.986C268.772 418.121 264.824 414.173 259.96 414.173C259.96 414.173 83.5661 414.173 26.4366 414.173C24.1014 414.173 21.8543 413.248 20.2064 411.591C18.5497 409.944 17.6244 407.696 17.6244 405.361V273.178C17.6244 268.314 13.6765 264.366 8.8122 264.366C3.94787 264.366 0 268.314 0 273.178ZM0 26.4366V237.929C0 242.794 3.94787 246.742 8.8122 246.742C13.6765 246.742 17.6244 242.794 17.6244 237.929V79.3098H281.99C286.855 79.3098 290.803 75.3619 290.803 70.4976C290.803 65.6333 286.855 61.6854 281.99 61.6854H17.6244V26.4366C17.6244 21.5723 21.5723 17.6244 26.4366 17.6244H480.265C485.129 17.6244 489.077 21.5723 489.077 26.4366V61.6854H317.239C312.375 61.6854 308.427 65.6333 308.427 70.4976C308.427 75.3619 312.375 79.3098 317.239 79.3098H489.077V405.361C489.077 410.226 485.129 414.173 480.265 414.173H458.234C453.37 414.173 449.422 418.121 449.422 422.986C449.422 427.85 453.37 431.798 458.234 431.798H480.265C494.867 431.798 506.702 419.963 506.702 405.361V26.4366C506.702 11.8348 494.867 0 480.265 0H26.4366C11.8348 0 0 11.8348 0 26.4366ZM356.894 251.148C400.691 251.148 436.248 286.705 436.248 330.502C436.248 374.298 400.691 409.855 356.894 409.855C313.097 409.855 277.54 374.298 277.54 330.502C277.54 286.705 313.097 251.148 356.894 251.148ZM123.371 370.112V352.488C123.371 337.886 111.536 326.051 96.9342 326.051H79.3098C64.708 326.051 52.8732 337.886 52.8732 352.488V370.112C52.8732 384.714 64.708 396.549 79.3098 396.549H96.9342C111.536 396.549 123.371 384.714 123.371 370.112ZM364.596 263.247C363.045 260.453 360.093 258.717 356.894 258.717C353.695 258.717 350.743 260.453 349.192 263.247L331.753 294.609L296.531 301.509C293.393 302.126 290.838 304.391 289.851 307.431C288.855 310.48 289.595 313.811 291.772 316.155L316.217 342.433L311.89 378.061C311.503 381.233 312.868 384.371 315.459 386.256C318.041 388.133 321.451 388.459 324.351 387.111L356.894 371.989L389.438 387.111C392.337 388.459 395.747 388.133 398.329 386.256C400.92 384.371 402.286 381.233 401.898 378.061L397.571 342.433L422.016 316.155C424.193 313.811 424.933 310.48 423.937 307.431C422.95 304.391 420.395 302.126 417.258 301.509L382.035 294.609L364.596 263.247ZM105.746 352.488V370.112C105.746 374.977 101.799 378.925 96.9342 378.925H79.3098C74.4455 378.925 70.4976 374.977 70.4976 370.112V352.488C70.4976 347.624 74.4455 343.676 79.3098 343.676H96.9342C101.799 343.676 105.746 347.624 105.746 352.488ZM356.894 285.665L368.623 306.762C369.883 309.026 372.086 310.621 374.633 311.124L398.32 315.759L381.877 333.436C380.114 335.331 379.277 337.921 379.586 340.495L382.494 364.455L360.604 354.286C358.251 353.193 355.537 353.193 353.184 354.286L331.295 364.455L334.203 340.495C334.511 337.921 333.674 335.331 331.912 333.436L315.468 315.759L339.155 311.124C341.702 310.621 343.905 309.026 345.165 306.762L356.894 285.665ZM61.6854 299.615H224.711C229.575 299.615 233.523 295.667 233.523 290.803C233.523 285.938 229.575 281.99 224.711 281.99H61.6854C56.8211 281.99 52.8732 285.938 52.8732 290.803C52.8732 295.667 56.8211 299.615 61.6854 299.615ZM61.6854 229.117H264.366C269.23 229.117 273.178 225.169 273.178 220.305C273.178 215.441 269.23 211.493 264.366 211.493H61.6854C56.8211 211.493 52.8732 215.441 52.8732 220.305C52.8732 225.169 56.8211 229.117 61.6854 229.117ZM61.6854 158.62H440.61C445.474 158.62 449.422 154.672 449.422 149.807C449.422 144.943 445.474 140.995 440.61 140.995H61.6854C56.8211 140.995 52.8732 144.943 52.8732 149.807C52.8732 154.672 56.8211 158.62 61.6854 158.62ZM44.061 30.8427C48.9253 30.8427 52.8732 34.7906 52.8732 39.6549C52.8732 44.5192 48.9253 48.4671 44.061 48.4671C39.1967 48.4671 35.2488 44.5192 35.2488 39.6549C35.2488 34.7906 39.1967 30.8427 44.061 30.8427Z" fill="white"/>
</svg>
