<svg width="512" height="512" viewBox="0 0 512 512" fill="none" xmlns="http://www.w3.org/2000/svg">
<path d="M512 256L458.086 302.149L486.69 367.11L418.043 385.202L415.628 456.148L345.922 442.771L312.959 505.635L256 463.238L199.041 505.635L166.078 442.771L96.3718 456.148L93.9557 385.202L25.3099 367.109L53.9136 302.15L0 256L53.9136 209.85L25.3099 144.89L93.9569 126.798L96.3718 55.8515L166.078 69.2281L199.041 6.36426L256 48.7615L312.958 6.36426L345.922 69.2281L415.628 55.8515L418.044 126.798L486.69 144.891L458.086 209.849L512 256Z" fill="white"/>
<path d="M256 426.666C350.256 426.666 426.666 350.256 426.666 256C426.666 161.743 350.256 85.333 256 85.333C161.743 85.333 85.333 161.743 85.333 256C85.333 350.256 161.743 426.666 256 426.666Z" fill="white"/>
</svg>
