<svg width="20" height="20" viewBox="0 0 20 20" fill="none" xmlns="http://www.w3.org/2000/svg">
<path d="M13.8962 6.53828L7.00238 10.6864C6.88387 10.7556 6.83448 10.8938 6.87399 11.0222L7.77276 14.242C7.80239 14.3309 7.93078 14.321 7.94066 14.2222L8.13819 12C8.14806 11.8321 8.22708 11.6741 8.35547 11.5654L13.9851 6.6568C14.0444 6.59754 13.9653 6.48889 13.8962 6.53828Z" fill="white"/>
<path d="M16.5432 0H3.45679C1.55062 0 0 1.55062 0 3.45679V16.5432C0 18.4494 1.55062 20 3.45679 20H16.5432C18.4494 20 20 18.4494 20 16.5432V3.45679C20 1.55062 18.4395 0 16.5432 0ZM17.1161 4.36543L14.5877 15.8519C14.4988 16.237 14.0444 16.3951 13.7383 16.1481L10.7753 13.7975C10.558 13.6198 10.2321 13.6494 10.0444 13.8667L8.52346 15.6247C8.25679 15.9407 7.74321 15.8321 7.62469 15.4469L6.28148 11.3086C6.22222 11.1407 6.08395 11.0025 5.91605 10.963L3.25926 10.2617C2.77531 10.1333 2.72593 9.46173 3.19012 9.2642L16.3951 3.76296C16.7901 3.60494 17.2049 3.95062 17.1161 4.36543Z" fill="white"/>
</svg>
