<svg width="512" height="512" viewBox="0 0 512 512" fill="none" xmlns="http://www.w3.org/2000/svg">
<path d="M355.743 167.379L179.261 273.571C176.227 275.343 174.963 278.88 175.974 282.168L198.983 364.594C199.741 366.87 203.028 366.617 203.281 364.088L208.338 307.199C208.59 302.901 210.613 298.856 213.9 296.073L358.019 170.413C359.537 168.896 357.512 166.115 355.743 167.379Z" fill="white"/>
<path d="M423.506 0H88.4938C39.6959 0 0 39.6959 0 88.4938V423.506C0 472.305 39.6959 512 88.4938 512H423.506C472.305 512 512 472.305 512 423.506V88.4938C512 39.6959 472.051 0 423.506 0ZM438.172 111.755L373.445 405.809C371.169 415.667 359.537 419.715 351.7 413.391L275.848 353.216C270.285 348.667 261.942 349.425 257.137 354.988L218.201 399.992C211.374 408.082 198.226 405.302 195.192 395.441L160.806 289.5C159.289 285.202 155.749 281.664 151.451 280.653L83.4371 262.7C71.0479 259.412 69.7838 242.22 81.6671 237.164L419.715 96.3318C429.827 92.2865 440.445 101.136 438.172 111.755Z" fill="white"/>
</svg>
