<svg width="20" height="20" viewBox="0 0 20 20" fill="none" xmlns="http://www.w3.org/2000/svg">
<path fill-rule="evenodd" clip-rule="evenodd" d="M3.5 0H16.5C18.433 0 20 1.567 20 3.5V16.5C20 18.433 18.433 20 16.5 20H3.5C1.567 20 0 18.433 0 16.5V3.5C0 1.567 1.567 0 3.5 0ZM5.40621 6.17813H3.00621C2.96655 6.17864 2.92757 6.18847 2.8924 6.20681C2.85723 6.22515 2.82687 6.25151 2.80376 6.28374C2.78065 6.31598 2.76543 6.35319 2.75935 6.39239C2.75326 6.43158 2.75647 6.47165 2.76871 6.50938C3.36779 8.29233 4.24876 9.96774 5.37809 11.4719C6.45621 12.8906 7.58434 14.1625 9.49059 14.2844C9.54996 14.2875 10.2031 14.275 10.6812 14.2469C10.8117 14.2373 10.9331 14.1769 11.0196 14.0788C11.106 13.9806 11.1506 13.8525 11.1437 13.7219C11.1218 13.2156 11.1656 12.4406 11.6218 12.3563C12.1718 12.2531 13.3906 13.5406 13.8093 14.0031C13.8555 14.0553 13.9123 14.0971 13.9759 14.1257C14.0394 14.1542 14.1084 14.1689 14.1781 14.1688H16.875C18.125 14.1688 15.9375 11.7438 15.1375 10.8875C15.0586 10.8049 15.0105 10.6977 15.0014 10.5839C14.9923 10.4701 15.0227 10.3566 15.0875 10.2625C15.8491 9.1227 16.509 7.91805 17.0593 6.66251C17.0753 6.62444 17.0817 6.58301 17.0777 6.5419C17.0738 6.5008 17.0598 6.46131 17.0369 6.42695C17.014 6.3926 16.9829 6.36445 16.9465 6.34503C16.9101 6.3256 16.8694 6.3155 16.8281 6.31563H14.1562C14.1064 6.31531 14.0577 6.33006 14.0164 6.35794C13.9751 6.38583 13.9432 6.42555 13.925 6.47188C13.6437 7.19376 12.4375 10.1344 11.5 9.84688C10.9624 9.68255 11.1355 8.49884 11.2496 7.7187C11.2874 7.46037 11.3187 7.24629 11.3156 7.12813C11.3031 6.65313 11.2218 6.09376 10.7437 5.89376C9.85796 5.65097 8.92321 5.65097 8.03746 5.89376C7.99059 5.91251 7.29684 6.35626 7.54684 6.35626C8.49996 6.35626 8.76559 9.91876 8.01559 9.91876C7.00621 9.70001 5.90309 7.02188 5.63746 6.33751C5.61968 6.29059 5.58802 6.2502 5.54671 6.22173C5.5054 6.19326 5.45639 6.17805 5.40621 6.17813Z" fill="white"/>
</svg>
