<svg width="512" height="512" viewBox="0 0 512 512" fill="none" xmlns="http://www.w3.org/2000/svg">
<path fill-rule="evenodd" clip-rule="evenodd" d="M89.6 0H422.4C471.885 0 512 40.1152 512 89.6V422.4C512 471.885 471.885 512 422.4 512H89.6C40.1152 512 0 471.885 0 422.4V89.6C0 40.1152 40.1152 0 89.6 0ZM138.399 158.16H76.959C75.9437 158.173 74.9458 158.425 74.0454 158.894C73.1451 159.364 72.3679 160.039 71.7763 160.864C71.1846 161.689 70.795 162.642 70.6394 163.645C70.4835 164.648 70.5656 165.674 70.879 166.64C86.2154 212.284 108.768 255.174 137.679 293.681C165.279 329.999 194.159 362.56 242.959 365.681C244.479 365.76 261.199 365.44 273.439 364.721C276.78 364.475 279.887 362.929 282.102 360.417C284.314 357.903 285.455 354.624 285.279 351.281C284.718 338.319 285.839 318.479 297.518 316.321C311.598 313.679 342.799 346.639 353.518 358.479C354.701 359.816 356.155 360.886 357.783 361.618C359.409 362.348 361.175 362.724 362.959 362.721H432C464 362.721 408 300.641 387.52 278.72C385.5 276.605 384.269 273.861 384.036 270.948C383.803 268.035 384.581 265.129 386.24 262.72C405.737 233.541 422.63 202.702 436.718 170.56C437.128 169.586 437.292 168.525 437.189 167.473C437.089 166.42 436.731 165.41 436.145 164.53C435.558 163.651 434.762 162.93 433.83 162.433C432.899 161.935 431.857 161.677 430.799 161.68H362.399C361.124 161.672 359.877 162.05 358.82 162.763C357.763 163.477 356.946 164.494 356.48 165.68C349.279 184.16 318.4 259.441 294.4 252.08C280.637 247.873 285.069 217.57 287.99 197.599C288.957 190.985 289.759 185.505 289.679 182.48C289.359 170.32 287.278 156 275.039 150.88C252.364 144.665 228.434 144.665 205.759 150.88C204.559 151.36 186.799 162.72 193.199 162.72C217.599 162.72 224.399 253.92 205.199 253.92C179.359 248.32 151.119 179.76 144.319 162.24C143.864 161.039 143.053 160.005 141.996 159.276C140.938 158.547 139.684 158.158 138.399 158.16Z" fill="white"/>
</svg>
