<svg width="25" height="25" viewBox="0 0 25 25" fill="none" xmlns="http://www.w3.org/2000/svg">
<path d="M2.92969 15.9552L1.06509 15.5163C0.518603 16.6927 0 18.0141 0 19.5365C0 21.0298 0.497607 22.3352 1.06509 23.5567L7.37305 22.0721V25L9.57031 23.8278L11.7676 25V22.0736L18.0263 23.5576C18.5686 22.3903 19.0918 21.0654 19.0918 19.5365C19.0918 19.273 19.0735 19.0107 19.0428 18.7551H25V0H2.92969V15.9552ZM1.90088 21.7595C1.71035 21.2219 1.46484 20.368 1.46484 19.5365C1.46484 18.705 1.7104 17.8509 1.90088 17.3135L7.37305 18.6015V20.4716L1.90088 21.7595ZM10.3027 22.4711L9.57031 22.0804L8.83789 22.4711V18.755H10.3027V22.4711ZM17.1913 21.7585L11.7676 20.4726V18.6005L17.1913 17.3145C17.3817 17.8521 17.627 18.7056 17.627 19.5365C17.627 20.3676 17.3817 21.2212 17.1913 21.7585V21.7585ZM23.5352 1.56292V17.1922H18.7038C18.4637 16.4085 18.2701 16.0384 18.0263 15.5155L10.9548 17.1922H8.18535L4.39453 16.2999V1.56292H23.5352Z" fill="#31FFEE"/>
<path d="M8.83789 3.12598H19.0918V4.6889H8.83789V3.12598Z" fill="#31FFEE"/>
<path d="M5.85938 9.37793H22.0703V10.9409H5.85938V9.37793Z" fill="#31FFEE"/>
<path d="M8.83789 12.5029H19.0918V14.0659H8.83789V12.5029Z" fill="#31FFEE"/>
<path d="M10.3027 6.25195H11.7676V7.81488H10.3027V6.25195Z" fill="#31FFEE"/>
<path d="M13.2324 6.25195H14.6973V7.81488H13.2324V6.25195Z" fill="#31FFEE"/>
<path d="M16.1621 6.25195H17.627V7.81488H16.1621V6.25195Z" fill="#31FFEE"/>
</svg>
