<svg width="25" height="24" viewBox="0 0 25 24" fill="none" xmlns="http://www.w3.org/2000/svg">
<path d="M0 0.530273V20.6547H8.02402V22.0937H6.55742V23.5303H18.4425V22.0937H16.9759V20.6547H25V0.530273H0ZM15.511 22.0937H9.48896V20.6547H15.511V22.0937H15.511ZM23.5351 19.2181H1.46489V16.3414H23.5351V19.2181H23.5351ZM23.5351 14.9047H1.46489V1.96694H23.5351V14.9047H23.5351Z" fill="#31FFEE"/>
<path d="M9.95816 5.84007L8.92232 4.82422L5.23877 8.43668L8.92232 12.0491L9.95816 11.0332L7.31045 8.43668L9.95816 5.84007Z" fill="#31FFEE"/>
<path d="M16.0778 4.82422L15.042 5.84007L17.6897 8.43668L15.042 11.0332L16.0778 12.0491L19.7613 8.43668L16.0778 4.82422Z" fill="#31FFEE"/>
<path d="M12.6317 4.10426L10.9312 12.4883L12.368 12.7686L14.0685 4.38455L12.6317 4.10426Z" fill="#31FFEE"/>
</svg>
