<svg width="65" height="65" viewBox="0 0 65 65" fill="none" xmlns="http://www.w3.org/2000/svg">
<path d="M9.55379 57.953L4.44824 0.686523H60.5514L55.4407 57.9444L32.4658 64.3139L9.55379 57.953Z" fill="#1572B6"/>
<path d="M32.5005 59.4451L51.0656 54.2979L55.4333 5.36816H32.5005V59.4451Z" fill="#33A9DC"/>
<path d="M32.5005 26.1161H41.7945L42.4363 18.9239H32.5005V11.9004H50.1124L49.9438 13.7849L48.2173 33.1397H32.5005V26.1161Z" fill="white"/>
<path d="M32.5421 44.3569L32.5111 44.366L24.6893 42.254L24.1891 36.6523H17.1396L18.1233 47.6805L32.5101 51.6734L32.5421 51.6643V44.3569Z" fill="#EBEBEB"/>
<path d="M41.1971 32.8428L40.3511 42.2485L32.5176 44.363V51.6704L46.9161 47.68L47.0217 46.4933L48.2435 32.8428H41.1971Z" fill="white"/>
<path d="M32.5243 11.9004V18.9239H15.5593L15.4187 17.3457L15.0987 13.7849L14.9307 11.9004H32.5243ZM32.5005 26.1171V33.1407H24.7771L24.6365 31.5624L24.3161 28.0016L24.1485 26.1171H32.5005Z" fill="#EBEBEB"/>
</svg>
