<svg width="65" height="65" viewBox="0 0 65 65" fill="none" xmlns="http://www.w3.org/2000/svg">
<g clip-path="url(#clip0_58_247)">
<path d="M21.6668 64.9997C27.6468 64.9997 32.5002 60.1463 32.5002 54.1663V43.333H21.6668C15.6868 43.333 10.8335 48.1863 10.8335 54.1663C10.8335 60.1463 15.6868 64.9997 21.6668 64.9997Z" fill="#0ACF83"/>
<path d="M10.8335 32.5003C10.8335 26.5203 15.6868 21.667 21.6668 21.667H32.5002V43.3337H21.6668C15.6868 43.3337 10.8335 38.4803 10.8335 32.5003Z" fill="#A259FF"/>
<path d="M10.8335 10.8333C10.8335 4.85333 15.6868 0 21.6668 0H32.5002V21.6667H21.6668C15.6868 21.6667 10.8335 16.8133 10.8335 10.8333Z" fill="#F24E1E"/>
<path d="M22.8016 43.333H21.6668C15.6868 43.333 10.8335 48.1863 10.8335 54.1663C10.8335 60.1463 15.6868 64.9997 21.6668 64.9997C22.0514 64.9997 22.4279 64.9807 22.8016 64.9401V43.333Z" fill="#09B472"/>
<path d="M22.8016 21.667H21.6668C15.6868 21.667 10.8335 26.5203 10.8335 32.5003C10.8335 38.4803 15.6868 43.3337 21.6668 43.3337H22.8016V21.667Z" fill="#8D4DDE"/>
<path d="M22.8016 0H21.6668C15.6868 0 10.8335 4.85333 10.8335 10.8333C10.8335 16.8133 15.6868 21.6667 21.6668 21.6667H22.8016V0Z" fill="#D3441A"/>
<path d="M32.5 0H43.3333C49.3133 0 54.1667 4.85333 54.1667 10.8333C54.1667 16.8133 49.3133 21.6667 43.3333 21.6667H32.5V0Z" fill="#FF7262"/>
<path d="M54.1667 32.5003C54.1667 38.4803 49.3133 43.3337 43.3333 43.3337C37.3533 43.3337 32.5 38.4803 32.5 32.5003C32.5 26.5203 37.3533 21.667 43.3333 21.667C49.3133 21.667 54.1667 26.5203 54.1667 32.5003Z" fill="#1ABCFE"/>
<path d="M43.3333 0H32.5V21.6667H43.3333V0Z" fill="#DE6355"/>
<path d="M43.3333 21.667C37.3533 21.667 32.5 26.5203 32.5 32.5003C32.5 38.4803 37.3533 43.3337 43.3333 43.3337V21.667Z" fill="#17A4DD"/>
</g>
<defs>
<clipPath id="clip0_58_247">
<rect width="65" height="65" fill="white"/>
</clipPath>
</defs>
</svg>
