<svg width="30" height="65" viewBox="0 0 30 65" fill="none" xmlns="http://www.w3.org/2000/svg">
<g clip-path="url(#clip0_58_281)">
<path d="M22.6263 63.019L23.2488 52.6339L24.9674 49.6963C24.9674 49.6963 21.0558 51.2985 14.507 51.2985C7.95821 51.2985 4.10587 49.7259 4.10587 49.7259L6.03199 52.9304L6.71336 63.019C6.71336 64.1006 10.2755 64.9772 14.6699 64.9772C19.064 64.9772 22.6263 64.1006 22.6263 63.019V63.019ZM20.6629 14.5222L21.9694 9.35149L29.2042 1.7288L27.2973 0.102539L19.6378 8.2226L18.1209 14.4002C16.9793 14.3619 15.8371 14.3429 14.6948 14.3432C6.62792 14.3432 0.0883789 15.2637 0.0883789 16.399C0.0883789 17.5345 6.62792 18.4549 14.6948 18.4549C22.7616 18.4549 29.301 17.5345 29.301 16.399C29.301 15.563 25.7543 14.8434 20.6629 14.5222" fill="#D34A47"/>
<path d="M19.9027 17.4174C19.9027 17.4174 19.6198 17.4809 18.7875 17.4845C17.9549 17.4879 17.3638 17.4791 17.1284 17.2643C17.0651 17.2067 17.0304 17.0922 17.0308 17.0147C17.0315 16.8671 17.1361 16.7802 17.2693 16.7258L17.3954 16.9237C17.3405 16.9427 17.3092 16.9651 17.3091 16.989C17.3087 17.101 18.1603 17.1778 18.8118 17.1695C19.4633 17.1615 20.2506 17.1077 20.2513 16.9972C20.2513 16.9638 20.1917 16.9323 20.0882 16.9075L20.2136 16.7109C20.3825 16.7634 20.5299 16.8648 20.5295 17.0403C20.5279 17.3386 20.1487 17.384 19.9027 17.4174" fill="white"/>
<path d="M29.1899 1.74322C29.3718 1.53283 29.0958 0.994684 28.5733 0.541406C28.0507 0.0883584 27.4795 -0.108479 27.2973 0.10191C27.1153 0.312298 27.3915 0.850443 27.9141 1.30349C28.4365 1.75665 29.0079 1.95372 29.1899 1.74322ZM22.2783 37.6518C22.1069 36 25.8867 33.6076 24.9167 33.531C22.8284 33.6505 21.7891 35.9815 20.7384 38.4228C20.3534 39.3175 19.0359 43.1327 18.1718 42.663C17.308 42.1936 19.2918 39.0562 19.8478 37.193C19.2062 37.6641 16.8534 39.4946 16.247 37.7803C15.2721 38.6094 13.189 39.0585 13.424 36.8808C12.9054 37.8007 11.7414 39.0849 10.3442 38.5513C8.50939 37.8506 11.4074 31.9982 12.128 32.2935C12.8487 32.5886 11.9826 33.9218 11.7557 34.4395C11.2568 35.5788 10.6805 37.0111 11.0655 37.3043C11.7251 37.8066 13.52 35.404 13.5599 35.3512C13.8956 34.9071 14.852 32.0018 15.6228 32.3354C16.3937 32.669 13.7002 36.505 14.7073 37.2663C14.9104 37.42 15.7414 37.1716 16.247 36.6239C16.5741 36.2696 16.4616 35.4849 17.5519 32.8812C18.6423 30.2777 19.6141 27.0352 20.3619 27.2823C21.1096 27.5292 20.4933 29.1933 20.225 29.8137C18.9662 32.7254 16.7894 37.5357 17.816 37.1716C18.8425 36.8075 19.3771 36.7862 20.3824 35.6082C21.3876 34.4303 21.3413 32.4901 22.0113 32.5313C22.6816 32.5726 22.5691 33.1947 22.4066 33.6684C23.066 32.9128 25.5326 31.3213 26.128 32.8975C26.8334 34.7636 22.5991 37.459 23.6548 37.3215C24.6842 37.1875 26.3518 36.13 27.0638 35.1684L29.0236 17.5258C29.0236 17.5258 27.0515 19.16 14.5051 19.16C1.9585 19.16 0.19043 17.5598 0.19043 17.5598L1.85895 33.6633C2.74459 31.1429 4.84767 26.0448 8.16268 26.216C9.67063 26.2938 11.6837 29.2012 9.95931 29.2998C9.22942 29.3414 9.15533 27.8485 8.29102 27.6293C7.66733 27.4711 6.79901 27.9788 6.23783 28.5289C5.11868 29.6256 2.71167 33.9527 3.02971 36.11C3.43491 38.8603 6.82 35.1543 7.39276 34.054C7.79613 33.2789 8.06864 30.9825 8.95084 31.2235C9.83315 31.4644 8.87388 33.8343 8.23436 35.9296C7.51594 38.2823 7.13827 40.7641 6.23783 40.4786C5.33728 40.1934 6.80417 37.1561 6.75107 36.6239C5.90465 37.4058 4.34532 39.3855 2.3504 38.4056L3.38662 48.4058C3.38662 48.4058 6.14069 50.5846 14.4371 50.5846C22.7334 50.5846 25.5894 48.4398 25.5894 48.4398L26.8762 36.8572C25.8234 37.8837 22.4917 39.7064 22.2783 37.6518" fill="#D34A47"/>
</g>
<defs>
<clipPath id="clip0_58_281">
<rect width="29.3675" height="65" fill="white"/>
</clipPath>
</defs>
</svg>
