<svg width="65" height="65" viewBox="0 0 65 65" fill="none" xmlns="http://www.w3.org/2000/svg">
<path d="M9.01367 58.3984L3.80859 0H61.0645L55.8594 58.3984L32.373 65" fill="#E34F26"/>
<path d="M32.5 59.9219L51.416 54.7168L55.8594 4.69727H32.5" fill="#EF652A"/>
<path d="M32.5 26.4062H22.9785L22.3438 19.043H32.5V11.9336H14.4727L16.377 33.6426H32.5V26.4062ZM32.373 45.0684L24.375 42.9102L23.8672 37.1973H16.7578L17.6465 48.4961L32.373 52.5586V45.0684Z" fill="#EBEBEB"/>
<path d="M32.373 26.4062V33.6426H41.2598L40.3711 42.9102L32.373 45.0684V52.5586L47.0996 48.4961L49.1309 26.4062H32.373ZM32.373 11.9336V19.043H49.7656L50.4004 11.9336H32.373Z" fill="white"/>
</svg>
