<svg width="65" height="65" viewBox="0 0 65 65" fill="none" xmlns="http://www.w3.org/2000/svg">
<g clip-path="url(#clip0_66_490)">
<path d="M61.3767 -0.240234H4L9.37893 58.0896L32.6854 64.6999L55.992 58.0896L61.3767 -0.240234Z" fill="#E6A329"/>
<path d="M32.6855 4.51172V59.7566L51.5691 54.4069L56.163 4.51172H32.6855Z" fill="#F1BF22"/>
<path d="M47.7087 11.668H18.6741L16.6519 33.5051L16.6935 33.3692H41.3599L40.5565 42.6087L32.6864 44.8728L24.7002 42.5722L24.2218 36.98H16.9725L18.0066 48.1542L32.6864 52.3215L47.3728 48.1542L49.3951 26.2207H23.2168L23.5528 18.9129H41.7156L41.9873 23.0999H49.2979L47.7087 11.668Z" fill="white"/>
<path d="M32.6922 11.668H18.6741L16.6519 33.5051L16.6935 33.3692H32.6915V26.2455H24.2379L24.5738 18.9377H32.6922V11.668ZM24.2379 36.9837H16.9717L18.0059 48.152L32.6857 52.3149V44.883L24.6994 42.5766L24.2379 36.9837Z" fill="#EBEBEB"/>
</g>
<defs>
<clipPath id="clip0_66_490">
<rect width="57.6966" height="65" fill="white" transform="translate(4)"/>
</clipPath>
</defs>
</svg>
