<svg width="65" height="65" viewBox="0 0 65 65" fill="none" xmlns="http://www.w3.org/2000/svg">
<path d="M24.355 40.1271L24.453 40.1749L24.6277 40.2591C24.8506 40.3653 25.0756 40.4704 25.3026 40.5714L25.4452 40.6349C25.7058 40.7492 25.9678 40.8579 26.2329 40.9625L26.4248 41.0376C26.6696 41.1331 26.9184 41.2255 27.1677 41.3134L27.2612 41.3454C27.5349 41.4408 27.8111 41.5297 28.0899 41.6165L28.2905 41.6759C28.5739 41.7618 28.8537 41.8638 29.1462 41.9182C47.7088 45.3027 53.1002 30.7631 53.1002 30.7631C48.5715 36.6628 40.5334 38.2193 32.9172 36.4866C32.6288 36.4216 32.3485 36.3312 32.0671 36.2479L31.8554 36.1839C31.5806 36.0997 31.3074 36.0108 31.0368 35.9179L30.9245 35.8772C30.6818 35.7919 30.4416 35.7015 30.2029 35.6096L30.0008 35.5304C29.7388 35.4273 29.4788 35.3191 29.2218 35.2064L29.066 35.1373C28.8451 35.0373 28.6262 34.9363 28.4088 34.8316L28.2184 34.7402C28.0478 34.657 27.8787 34.5681 27.7101 34.4813L27.3709 34.3035C27.1652 34.1933 26.9631 34.0791 26.762 33.9618L26.5563 33.847C26.2887 33.6891 26.0242 33.5261 25.7626 33.3605L25.5488 33.2183C25.3589 33.0959 25.17 32.9715 24.9842 32.8431L24.8024 32.7151C24.6226 32.5881 24.4449 32.4597 24.2686 32.3291L24.032 32.1499C23.8705 32.0265 23.7095 31.9021 23.5506 31.7741L23.3358 31.6014C23.1337 31.4349 22.9336 31.2678 22.7356 31.0962L22.6701 31.0408C22.4552 30.8539 22.2455 30.6615 22.0383 30.4685L21.8606 30.2974C21.7067 30.1516 21.5559 30.0044 21.4071 29.8536L21.2294 29.6758C21.0405 29.4823 20.8551 29.2863 20.6733 29.0878L20.6459 29.0583C20.4535 28.8481 20.2656 28.6333 20.0817 28.4164L19.934 28.2407C19.7969 28.0757 19.6608 27.9081 19.5282 27.739L19.3794 27.5542C19.2195 27.347 19.0636 27.1403 18.9107 26.9301C14.6827 21.1623 13.1633 13.2075 16.5428 6.67445L13.5472 10.4739C9.70865 15.9903 10.187 23.1677 13.1186 29.0299L13.3334 29.4468L13.471 29.7109L13.5563 29.8627L13.7092 30.1364C13.8001 30.2969 13.893 30.4563 13.9885 30.6158L14.1485 30.8793C14.2541 31.05 14.3622 31.2186 14.4735 31.3872L14.6116 31.6014C14.7644 31.8289 14.9208 32.0564 15.0818 32.2799L15.0955 32.2977L15.1747 32.4048C15.3144 32.5973 15.4581 32.7872 15.6033 32.9751L15.7648 33.1802C15.8943 33.3432 16.0268 33.5057 16.1609 33.6672L16.3122 33.8475C16.4925 34.0603 16.6763 34.2715 16.8642 34.4782L16.8754 34.4899L16.8967 34.5132C17.0795 34.7133 17.2674 34.9083 17.4574 35.1043L17.6371 35.2856C17.7844 35.4339 17.9337 35.5797 18.085 35.7249L18.2683 35.8991C18.4699 36.089 18.6736 36.2754 18.8818 36.4582L18.8919 36.4658L18.9986 36.5572C19.1819 36.7156 19.3688 36.8736 19.5567 37.0284L19.7877 37.2123C19.9411 37.3352 20.0965 37.4565 20.2529 37.5759L20.5012 37.7648C20.6738 37.8917 20.8475 38.0166 21.0227 38.139L21.2131 38.2741L21.2654 38.3112C21.432 38.4259 21.6021 38.5356 21.7722 38.6458L21.9916 38.7921C22.2521 38.9571 22.5172 39.1201 22.7848 39.2775L23.0042 39.4015C23.2012 39.5147 23.3988 39.6259 23.5993 39.7346L23.9284 39.9052L24.355 40.1271ZM26.2303 21.4422C26.6462 22.0383 27.1068 22.7472 27.6588 23.2266C27.8589 23.447 28.0681 23.6613 28.2814 23.8731L28.4459 24.0345C28.6536 24.2356 28.8644 24.4332 29.0817 24.6256L29.1081 24.648L29.1142 24.6546C29.3554 24.8658 29.6042 25.0689 29.8571 25.269L30.0262 25.4011C30.2801 25.5956 30.5386 25.7865 30.8037 25.9688L30.8265 25.9855L31.181 26.2191L31.3496 26.3309C31.539 26.4517 31.7304 26.5706 31.926 26.6833L32.0072 26.7305C32.1753 26.8275 32.3459 26.923 32.5165 27.0154L32.6973 27.1104L33.0538 27.2947L33.1076 27.3191C33.3524 27.4394 33.5992 27.5552 33.8511 27.6654L34.0151 27.7329C34.2162 27.8182 34.4198 27.902 34.624 27.9802L34.885 28.0757C35.0708 28.1448 35.2567 28.2077 35.4446 28.2702L35.698 28.3514C35.9651 28.4342 36.2286 28.5388 36.5069 28.585C50.8384 30.9601 54.1473 19.9248 54.1473 19.9248C51.1644 24.2204 45.3886 26.2694 39.2247 24.6698C38.951 24.5977 38.6809 24.52 38.4133 24.4352L38.169 24.3565C37.9786 24.295 37.7892 24.2295 37.6013 24.161L37.3453 24.0655C37.1397 23.9863 36.9355 23.9045 36.7339 23.8192L36.5694 23.7491C36.3165 23.6389 36.0672 23.5232 35.8219 23.4013L35.4466 23.2104L35.2303 23.0991C35.0708 23.0128 34.9124 22.9224 34.756 22.8315L34.6427 22.767C34.4483 22.6538 34.2573 22.537 34.0679 22.4172L33.8947 22.3009L33.523 22.0551C33.2585 21.8728 33.0015 21.6823 32.7486 21.4889L32.5744 21.3513C29.8764 19.222 27.738 16.3102 26.7209 13.0089C25.6555 9.58625 25.885 5.74313 27.7309 2.62465L25.463 5.82691C22.6873 9.82086 22.8381 15.1686 25.0035 19.3931C25.366 20.1005 25.7738 20.7881 26.2303 21.4422ZM41.3362 16.5006L41.6922 16.624L41.8491 16.6738C42.0182 16.7266 42.1853 16.7886 42.3595 16.8211C50.2727 18.3501 52.4197 12.7601 52.991 11.9374C51.1106 14.6446 47.951 15.2941 44.0738 14.3531C43.7676 14.2789 43.431 14.1688 43.1354 14.0636C42.7571 13.9286 42.3843 13.7752 42.0218 13.6015C41.3332 13.2704 40.6771 12.8698 40.0687 12.4097C36.5993 9.77668 34.4442 4.75594 36.708 0.666016L35.4832 2.35398C33.847 4.76254 33.686 7.75355 34.8215 10.4125C36.0189 13.2359 38.4727 15.45 41.3362 16.5006ZM33.6977 48.8996H31.5517C31.4329 48.8996 31.3145 48.995 31.2892 49.1113L30.5274 52.6356L29.7657 56.1598C29.7408 56.2761 29.6225 56.3715 29.5037 56.3715H27.9848C26.4822 56.3715 26.6559 55.332 26.9636 53.9081L26.9727 53.865L27.0063 53.6852L27.0124 53.6517L27.0809 53.2861L27.1545 52.8945L27.2327 52.4959L27.5791 50.8039L27.9259 49.1118C27.9498 48.995 27.8716 48.8991 27.7527 48.8991H25.5504C25.4315 48.8991 25.3137 48.9945 25.2894 49.1113L24.8156 51.3579L24.3423 53.605L24.3413 53.608L24.2976 53.8172C23.7522 56.307 23.8964 58.6821 26.861 58.7567L26.9474 58.7583H31.6004C31.7193 58.7583 31.8376 58.6628 31.8625 58.5465L32.8659 53.8294L33.8694 49.1118C33.8942 48.995 33.817 48.9001 33.6977 48.8996ZM10.7161 48.8747H8.3599C8.24056 48.8747 8.12173 48.9702 8.09533 49.0859L7.87189 50.0721L7.64845 51.0583C7.62255 51.1746 7.69822 51.2695 7.81755 51.2695H10.1921C10.3114 51.2695 10.4297 51.1741 10.4551 51.0578L10.671 50.0721L10.8868 49.0865C10.9117 48.9702 10.8355 48.8747 10.7161 48.8747ZM10.0326 51.9439H7.65759C7.53876 51.9439 7.41943 52.0394 7.39302 52.1552L7.05939 53.6329L6.72626 55.1101L6.63333 55.5336L6.3129 57.0418L5.99298 58.5506C5.9681 58.6668 5.91681 58.8547 5.87872 58.9675C5.87872 58.9675 5.4349 60.2878 4.68892 60.2725L4.59548 60.2705L3.95005 60.2588H3.94954C3.83072 60.2573 3.71138 60.3502 3.68345 60.4655L3.43716 61.5009L3.19138 62.5359C3.16345 62.6516 3.23861 62.7471 3.35693 62.7491C3.77994 62.7542 4.72751 62.7649 5.30083 62.7649C7.164 62.7649 8.14662 61.7325 8.77579 58.7618L9.51263 55.3524L10.2038 52.1547C10.2286 52.0394 10.1515 51.9439 10.0326 51.9439ZM53.7639 51.1446L53.6654 50.7379L53.5684 50.3215L53.5192 50.1112C53.3262 49.3612 52.76 48.929 51.5301 48.929L49.6156 48.927L47.8525 48.9245H45.8684C45.7496 48.9245 45.6318 49.0199 45.6069 49.1362L45.5191 49.5506L45.4155 50.0401L45.3865 50.1777L44.4933 54.3621L43.6452 58.3342C43.6199 58.451 43.6117 58.5942 43.626 58.6521C43.6402 58.7105 43.8692 58.7583 43.988 58.7583H45.7776C45.8969 58.7583 46.0477 58.7369 46.1127 58.7105C46.1777 58.6841 46.2737 58.45 46.2976 58.3337L46.6154 56.76L46.9338 55.1858L46.9343 55.1833L46.977 54.9735L47.3629 53.1657L47.7037 51.5691C47.7291 51.4529 47.8464 51.3579 47.9652 51.3574L53.5963 51.3549C53.7157 51.3559 53.7908 51.2609 53.7639 51.1446ZM61.0129 47.4681L60.5793 47.4696H58.777C58.6577 47.4696 58.5049 47.5503 58.4383 47.6488L54.4525 53.4877C54.3855 53.5862 54.3088 53.572 54.2824 53.4562L53.9889 52.1699C53.9625 52.0536 53.8431 51.9586 53.7238 51.9586H51.1619C51.0426 51.9586 50.972 52.0521 51.0045 52.1663L52.1526 56.1887C52.1851 56.3035 52.1877 56.4914 52.1582 56.6072L51.658 58.5536C51.6281 58.6694 51.7012 58.7633 51.8205 58.7633H54.353C54.4718 58.7633 54.5937 58.6689 54.6231 58.5536L55.1238 56.6072C55.1533 56.4909 55.2361 56.3192 55.3082 56.2238L61.7787 47.6361C61.8508 47.5407 61.8117 47.463 61.6929 47.464L61.0129 47.4681ZM40.6568 52.505V52.503C40.642 52.632 40.5227 52.727 40.4034 52.727H37.1549C37.0422 52.727 36.9853 52.6508 37.002 52.5563L37.0051 52.5487L37.0031 52.5497L37.0046 52.5391L37.0193 52.4837C37.3296 51.659 37.9613 51.1177 39.1491 51.1177C40.4867 51.1172 40.7477 51.7702 40.6568 52.505ZM39.7036 48.7554C35.534 48.7554 34.5458 51.2863 33.9912 53.8411C33.4372 56.4452 33.4844 58.8791 37.7998 58.8791H38.3229L38.4529 58.8786H38.4833L39.0013 58.8771H39.0104C40.15 58.8725 41.2931 58.8639 41.7557 58.8603C41.874 58.8583 41.9898 58.7633 42.0142 58.647L42.1888 57.7934L42.2229 57.6274L42.4311 56.6087C42.4549 56.4924 42.3772 56.3964 42.2579 56.3964H38.3787C36.8355 56.3964 36.3774 55.9866 36.5465 54.7811H42.7474L42.7469 54.7816L42.751 54.7811C42.8495 54.7795 42.9409 54.7115 42.977 54.6211L42.9917 54.5673L42.9912 54.5678C43.9118 51.0949 43.6478 48.7559 39.7036 48.7554ZM19.9954 52.4918L19.9365 52.6995V52.7L19.4683 54.3596L19.0001 56.0186C18.9681 56.1339 18.8437 56.2273 18.7243 56.2273H16.2462C14.3663 56.2273 13.9083 54.7567 14.3663 52.5883C14.8238 50.3702 15.7211 48.9915 17.5716 48.8518C20.1005 48.6609 20.6063 50.4393 19.9954 52.4918ZM21.6956 56.0998C21.6956 56.0998 22.864 53.2622 23.1291 51.624C23.4912 49.4308 22.3928 46.2488 18.1505 46.2488C13.9326 46.2488 12.1004 49.286 11.4017 52.5883C10.7029 55.9145 11.6185 58.8309 15.8126 58.807L19.1215 58.7948L22.2135 58.7836C22.3324 58.7826 22.4542 58.6882 22.4847 58.5734L23.0235 56.5188C23.0535 56.403 22.9808 56.3086 22.8615 56.3075L22.3451 56.3045L21.8286 56.3015C21.7276 56.3009 21.6697 56.2349 21.6819 56.1481L21.6956 56.0998ZM42.5768 54.2001C42.5768 54.2788 42.5133 54.3428 42.4346 54.3428C42.3564 54.3428 42.2924 54.2788 42.2924 54.2001C42.2924 54.1219 42.3559 54.0584 42.4346 54.0584C42.5133 54.0584 42.5768 54.1219 42.5768 54.2001Z" fill="#0868AC"/>
</svg>
