<svg width="65" height="65" viewBox="0 0 65 65" fill="none" xmlns="http://www.w3.org/2000/svg">
<g clip-path="url(#clip0_310_40)">
<rect x="65" y="65" width="65" height="65" rx="32.5" transform="rotate(-180 65 65)" fill="#1F1E1C"/>
<path d="M32.1098 3.17679C36.0964 3.17679 39.7942 3.92791 43.2031 5.43013C46.612 6.99013 49.5587 9.04124 52.0431 11.5835L47.7098 16.6101C45.6876 14.4724 43.3187 12.739 40.6031 11.4101C37.8298 10.139 34.9698 9.50346 32.0231 9.50346C28.2675 9.50346 25.3498 10.3412 23.2698 12.0168C21.1898 13.7501 20.1498 16.0035 20.1498 18.7768C20.1498 20.7412 20.5831 22.3012 21.4498 23.4568C22.2587 24.6124 23.3853 25.5946 24.8298 26.4035C26.2164 27.2124 27.8053 28.0212 29.5964 28.8301L37.7431 32.3835C39.5342 33.1346 41.3253 34.1168 43.1164 35.3301C44.8498 36.5435 46.3231 38.1035 47.5364 40.0101C48.692 41.9168 49.2698 44.2568 49.2698 47.0301C49.2698 49.919 48.5187 52.4901 47.0164 54.7435C45.4564 57.0546 43.3187 58.8457 40.6031 60.1168C37.8875 61.4457 34.8253 62.1101 31.4164 62.1101C28.0075 62.1101 24.8587 61.4457 21.9698 60.1168C19.0809 58.8457 16.6253 57.1701 14.6031 55.0901L18.5031 50.4101C20.2364 52.0857 22.172 53.3857 24.3098 54.3101C26.3898 55.2924 28.7587 55.7835 31.4164 55.7835C34.5942 55.7835 37.1653 55.0324 39.1298 53.5301C41.0364 52.0279 41.9898 50.0057 41.9898 47.4635C41.9898 45.6724 41.5275 44.1701 40.6031 42.9568C39.6209 41.8013 38.4075 40.8479 36.9631 40.0968C35.5187 39.3457 34.0453 38.6524 32.5431 38.0168L24.4831 34.5501C22.2875 33.6257 20.3231 32.499 18.5898 31.1701C16.7987 29.899 15.3831 28.3101 14.3431 26.4035C13.3031 24.5546 12.7831 22.2146 12.7831 19.3835C12.7831 16.379 13.5631 13.6346 15.1231 11.1501C16.6831 8.72346 18.9075 6.78791 21.7964 5.34346C24.6853 3.89902 28.1231 3.17679 32.1098 3.17679Z" fill="white"/>
<path d="M32.054 25.734C31.157 25.734 30.325 25.565 29.558 25.227C28.791 24.876 28.128 24.4145 27.569 23.8425L28.544 22.7115C28.999 23.1925 29.532 23.5825 30.143 23.8815C30.767 24.1675 31.4105 24.3105 32.0735 24.3105C32.9185 24.3105 33.575 24.122 34.043 23.745C34.511 23.355 34.745 22.848 34.745 22.224C34.745 21.782 34.6475 21.431 34.4525 21.171C34.2705 20.911 34.017 20.69 33.692 20.508C33.38 20.326 33.0225 20.144 32.6195 19.962L30.7865 19.1625C30.3835 18.9935 29.9805 18.7725 29.5775 18.4995C29.1875 18.2265 28.856 17.8755 28.583 17.4465C28.323 17.0175 28.193 16.491 28.193 15.867C28.193 15.217 28.362 14.6385 28.7 14.1315C29.051 13.6115 29.532 13.2085 30.143 12.9225C30.754 12.6235 31.443 12.474 32.21 12.474C32.977 12.474 33.6855 12.6235 34.3355 12.9225C34.9855 13.2085 35.538 13.5855 35.993 14.0535L35.1155 15.1065C34.7255 14.7295 34.29 14.437 33.809 14.229C33.341 14.008 32.808 13.8975 32.21 13.8975C31.495 13.8975 30.9165 14.0665 30.4745 14.4045C30.0455 14.7425 29.831 15.1975 29.831 15.7695C29.831 16.1725 29.935 16.5105 30.143 16.7835C30.364 17.0435 30.637 17.258 30.962 17.427C31.287 17.596 31.6185 17.752 31.9565 17.895L33.77 18.675C34.264 18.883 34.706 19.1365 35.096 19.4355C35.499 19.7215 35.8175 20.079 36.0515 20.508C36.2855 20.924 36.4025 21.4505 36.4025 22.0875C36.4025 22.7635 36.227 23.381 35.876 23.94C35.525 24.486 35.0245 24.9215 34.3745 25.2465C33.7245 25.5715 32.951 25.734 32.054 25.734Z" fill="white"/>
<path d="M32.224 54.0338C31.158 54.0338 30.209 53.7608 29.377 53.2148C28.558 52.6688 27.9145 51.8953 27.4465 50.8943C26.9915 49.8933 26.764 48.7103 26.764 47.3453C26.764 45.9803 26.9915 44.8103 27.4465 43.8353C27.9145 42.8473 28.558 42.0933 29.377 41.5733C30.209 41.0403 31.158 40.7738 32.224 40.7738C33.303 40.7738 34.252 41.0403 35.071 41.5733C35.89 42.0933 36.5335 42.8473 37.0015 43.8353C37.4695 44.8103 37.7035 45.9803 37.7035 47.3453C37.7035 48.7103 37.4695 49.8933 37.0015 50.8943C36.5335 51.8953 35.89 52.6688 35.071 53.2148C34.252 53.7608 33.303 54.0338 32.224 54.0338ZM32.224 52.6103C32.991 52.6103 33.654 52.3958 34.213 51.9668C34.785 51.5248 35.227 50.9138 35.539 50.1338C35.851 49.3408 36.007 48.4113 36.007 47.3453C36.007 45.7593 35.6625 44.5048 34.9735 43.5818C34.2845 42.6588 33.368 42.1973 32.224 42.1973C31.08 42.1973 30.1635 42.6588 29.4745 43.5818C28.7855 44.5048 28.441 45.7593 28.441 47.3453C28.441 48.4113 28.597 49.3408 28.909 50.1338C29.221 50.9138 29.663 51.5248 30.235 51.9668C30.807 52.3958 31.47 52.6103 32.224 52.6103Z" fill="white"/>
</g>
<defs>
<clipPath id="clip0_310_40">
<rect x="65" y="65" width="65" height="65" rx="32.5" transform="rotate(-180 65 65)" fill="white"/>
</clipPath>
</defs>
</svg>
