<svg width="87" height="65" viewBox="0 0 87 65" fill="none" xmlns="http://www.w3.org/2000/svg">
<g clip-path="url(#clip0_58_334)">
<path d="M74.6263 37.3414C71.5945 37.3585 68.9692 38.0862 66.7673 39.1697C65.9543 37.5616 65.1413 36.1565 65.006 35.1072C64.8536 33.8885 64.6673 33.1435 64.8536 31.688C65.0397 30.2321 65.8866 28.1669 65.8866 27.9977C65.8695 27.8453 65.7001 27.1005 63.9557 27.0836C62.2113 27.0667 60.7037 27.4222 60.5344 27.8792C60.365 28.3362 60.0262 29.3857 59.8061 30.469C59.5012 32.0602 56.3169 37.6969 54.5046 40.6591C53.9118 39.5081 53.4037 38.4925 53.3019 37.6798C53.1497 36.4612 52.9632 35.7163 53.1496 34.2607C53.336 32.8048 54.1828 30.7399 54.1828 30.5706C54.1659 30.4183 53.9965 29.6735 52.2521 29.6565C50.5074 29.6396 49.0002 29.9951 48.8308 30.4521C48.6614 30.9091 48.4751 31.9925 48.1025 33.042C47.7466 34.0914 43.5123 43.5029 42.4113 45.9573C41.8524 47.2099 41.3614 48.2086 41.0055 48.8857C40.6498 49.5628 40.9886 48.9365 40.9547 49.0042C40.6498 49.5797 40.4805 49.9013 40.4805 49.9013V49.9184C40.2433 50.3416 39.9893 50.7477 39.8706 50.7477C39.7859 50.7477 39.6165 49.6136 39.9044 48.0564C40.5311 44.7893 42.0555 39.6945 42.0387 39.5083C42.0387 39.4236 42.3265 38.5263 41.0562 38.0695C39.8197 37.6124 39.3795 38.3741 39.2777 38.3741C39.1761 38.3741 39.0914 38.645 39.0914 38.645C39.0914 38.645 40.4634 32.9069 36.4661 32.9069C33.9594 32.9069 30.5042 35.6321 28.7935 38.1204C27.7095 38.7129 25.406 39.9653 22.967 41.3027C22.0355 41.8105 21.07 42.3522 20.1554 42.8431L19.9693 42.6396C15.1252 37.4768 6.16528 33.8206 6.5379 26.8805C6.6734 24.3584 7.55414 17.706 23.7465 9.64872C37.0085 3.04716 47.6282 4.85836 49.4742 8.88701C52.0995 14.6422 43.8002 25.3401 30.0133 26.8805C24.7627 27.4729 22.0018 25.4417 21.3075 24.68C20.5792 23.8844 20.4776 23.8505 20.2066 24.0029C19.7662 24.2399 20.0372 24.9508 20.2066 25.374C20.6131 26.4404 22.3068 28.3362 25.1862 29.2841C27.7097 30.1136 33.875 30.5706 41.3275 27.693C49.6777 24.4599 56.1986 15.4886 54.2846 7.98987C52.3368 0.355757 39.6676 -2.14945 27.6929 2.09925C20.5621 4.63831 12.8386 8.59925 7.28315 13.7959C0.677556 19.9573 -0.372564 25.3401 0.067809 27.5745C1.60928 35.5472 12.6015 40.7438 17.0052 44.5862C16.785 44.7045 16.5818 44.823 16.3955 44.9248C14.1936 46.0079 5.80959 50.3922 3.70935 55.0301C1.33811 60.2775 4.08198 64.0524 5.91122 64.5602C11.5683 66.1344 17.3609 63.3076 20.4943 58.6526C23.6106 53.9977 23.2382 47.9547 21.7985 45.1956L21.7475 45.094L23.4751 44.0784C24.5932 43.4183 25.6941 42.8089 26.6594 42.284C26.1175 43.7566 25.7278 45.5001 25.5247 48.0392C25.2876 51.0185 26.5071 54.8777 28.1162 56.4012C28.8275 57.0611 29.6744 57.0782 30.1995 57.0782C32.0626 57.0782 32.9094 55.5377 33.841 53.6928C34.9927 51.4415 36.009 48.8347 36.009 48.8347C36.009 48.8347 34.7387 55.8933 38.2109 55.8933C39.4812 55.8933 40.7515 54.2514 41.3273 53.4051V53.422C41.3273 53.422 41.3612 53.3712 41.429 53.2527C41.5 53.1477 41.5678 53.0405 41.6322 52.9313V52.8974C42.1403 52.0172 43.2751 50.0029 44.9689 46.6683C47.1536 42.3688 49.254 36.986 49.254 36.986C49.254 36.986 49.4573 38.3063 50.084 40.4729C50.4564 41.7596 51.2694 43.1643 51.8961 44.5354C51.388 45.2464 51.0831 45.6528 51.0831 45.6528L51.1001 45.6697C50.6937 46.2114 50.2362 46.7871 49.7622 47.3624C48.0345 49.4275 45.9682 51.7806 45.6972 52.4577C45.3754 53.2531 45.4431 53.8455 46.0698 54.3196C46.5271 54.6582 47.3401 54.7257 48.2039 54.6582C49.7622 54.5564 50.8462 54.1673 51.3882 53.9301C52.235 53.6255 53.2005 53.1684 54.132 52.4913C55.8258 51.2389 56.8589 49.4616 56.7573 47.0918C56.7065 45.7884 56.2831 44.5019 55.758 43.2832C55.9104 43.0631 56.0631 42.8429 56.2153 42.6061C58.8914 38.6958 60.9578 34.3965 60.9578 34.3965C60.9578 34.3965 61.161 35.7168 61.7877 37.8834C62.1094 38.9837 62.7532 40.1857 63.329 41.3706C60.8223 43.4188 59.2471 45.7886 58.7051 47.3458C57.7058 50.2234 58.4849 51.5268 59.9585 51.8315C60.6189 51.9669 61.5675 51.6623 62.2787 51.3576C63.1595 51.0698 64.2265 50.5787 65.2091 49.8511C66.9028 48.5984 68.5288 46.855 68.4441 44.5021C68.3933 43.4188 68.1054 42.3524 67.7158 41.3367C69.8499 40.4565 72.6106 39.9487 76.1168 40.3719C83.6539 41.2521 85.1444 45.9578 84.8567 47.9214C84.5687 49.8851 82.9935 50.9682 82.4683 51.3068C81.9432 51.6284 81.7739 51.7471 81.8247 51.9839C81.8924 52.3395 82.1296 52.3224 82.5869 52.2549C83.2136 52.1531 86.5502 50.6468 86.6857 47.0246C86.889 42.3689 82.4683 37.2908 74.6263 37.3414ZM16.4971 56.9261C14.0073 59.6513 10.5013 60.6839 9.01076 59.8037C7.40171 58.8727 8.02822 54.861 11.0941 51.9664C12.9572 50.206 15.3792 48.581 16.9713 47.5823C17.327 47.3623 17.869 47.0408 18.5126 46.6513C18.6143 46.5838 18.682 46.5498 18.682 46.5498C18.8006 46.4821 18.9361 46.3974 19.0716 46.3128C20.2064 50.443 19.1224 54.0654 16.4971 56.9261ZM34.7048 44.5524C33.841 46.6683 32.0118 52.1018 30.9108 51.7972C29.9622 51.5433 29.3865 47.43 30.7243 43.3675C31.4018 41.3191 32.8415 38.8818 33.6884 37.9337C35.0605 36.4103 36.5508 35.9025 36.9236 36.5288C37.364 37.3414 35.2468 43.2321 34.7048 44.5524ZM49.7283 51.7295C49.3557 51.9158 49.0169 52.0511 48.8645 51.9497C48.7459 51.882 49.0168 51.6281 49.0168 51.6281C49.0168 51.6281 50.8968 49.6137 51.642 48.6827C52.0655 48.1413 52.5736 47.5149 53.1156 46.8038V47.007C53.1158 49.4443 50.7784 51.0693 49.7283 51.7295ZM61.3133 49.0888C61.0423 48.8857 61.0764 48.2594 61.9908 46.2959C62.3467 45.5172 63.1595 44.2138 64.5653 42.9781C64.7347 43.486 64.8365 43.9767 64.8194 44.4339C64.8026 47.4808 62.6346 48.6149 61.3133 49.0888Z" fill="#CF649A"/>
</g>
<defs>
<clipPath id="clip0_58_334">
<rect width="86.7195" height="65" fill="white"/>
</clipPath>
</defs>
</svg>
