<svg width="20" height="26" viewBox="0 0 20 26" fill="none" xmlns="http://www.w3.org/2000/svg">
<path d="M17.2948 16.9863L15.8118 16.5382L12.5851 14.3698V13.873C13.5193 13.148 14.1608 12.0398 14.2801 10.7695C14.7486 10.6919 15.1076 10.273 15.1076 9.76946V8.40319C15.1076 8.39791 15.107 8.39273 15.1068 8.38745V6.65672C15.2934 6.5192 15.4119 6.29521 15.4119 6.04394V4.46008L17.6386 4.06982C18.0046 4.00569 18.2678 3.70664 18.2936 3.32562C18.3194 2.94461 18.0991 2.61088 17.7454 2.49515L10.2386 0.0384541C10.082 -0.012835 9.91651 -0.0127842 9.75996 0.0384033L2.25307 2.49515C1.89934 2.61088 1.67902 2.94461 1.70483 3.32557C1.72122 3.56765 1.83365 3.77636 2.00718 3.91306V5.98428H1.98882C1.56609 5.98428 1.22219 6.33812 1.22219 6.77306V7.80118L0.7273 10.7898C0.641767 11.3067 1.02871 11.7798 1.53954 11.7798H3.2151C3.72479 11.7798 4.11307 11.3078 4.02734 10.7897L3.53246 7.80118V6.77306C3.53246 6.33812 3.18855 5.98428 2.76582 5.98428H2.74751V4.13772L4.58817 4.46028V6.04394C4.58817 6.29414 4.70608 6.51778 4.89185 6.6555L4.89254 8.40334V9.76946C4.89254 10.2731 5.2515 10.6919 5.72003 10.7695C5.83922 12.0391 6.48005 13.1468 7.41336 13.8718V14.371L4.1874 16.539L2.70551 16.9865C1.11977 17.4654 9.86564e-05 18.9633 9.86564e-05 20.7045V21.8395C9.86564e-05 22.0499 0.165784 22.2204 0.370263 22.2204C0.574742 22.2204 0.740428 22.0499 0.740428 21.8395V20.7045C0.740428 19.3322 1.6342 18.1038 2.91404 17.7174L4.2948 17.3004L9.81104 20.6729C9.92303 20.7414 10.0712 20.745 10.1892 20.6729L15.7058 17.3002L17.0864 17.7172C18.366 18.1037 19.2598 19.332 19.2598 20.7042V24.3827C19.2598 24.8545 18.8867 25.2384 18.4282 25.2384H16.7966V23.5967C16.7966 23.3864 16.631 23.2159 16.4265 23.2159C16.222 23.2159 16.0563 23.3863 16.0563 23.5967V25.2384H3.94216V23.5967C3.94216 23.3864 3.77647 23.2159 3.57199 23.2159C3.36751 23.2159 3.20183 23.3863 3.20183 23.5967V25.2384H1.57197C1.11341 25.2384 0.740329 24.8545 0.740329 24.3827V23.6199C0.740329 23.4095 0.574644 23.239 0.370165 23.239C0.165686 23.239 0 23.4095 0 23.6199V24.3827C0 25.2745 0.705139 26 1.57192 26H18.4281C19.2949 26 20 25.2745 20 24.3827V20.7042C20 19.004 18.9185 17.4768 17.2948 16.9863V16.9863ZM3.21505 11.0181H1.53954C1.48777 11.0181 1.44828 10.9705 1.45707 10.9176L1.90472 8.21423H2.84987L3.29753 10.9176C3.30626 10.9703 3.26707 11.0181 3.21505 11.0181V11.0181ZM2.79213 6.77306V7.45256H1.96242V6.77306C1.96242 6.75808 1.97421 6.74594 1.98877 6.74594H2.76572C2.78033 6.74589 2.79213 6.75808 2.79213 6.77306V6.77306ZM8.67617 18.9501L8.82349 19.1831L5.04441 16.8727L7.44312 15.2606C7.5519 16.5738 7.97261 17.8375 8.67617 18.9501ZM8.6736 17.3061C9.54487 17.4334 10.4547 17.4335 11.3264 17.3061C11.158 17.7325 10.9504 18.144 10.7034 18.5348L10 19.6471L9.29666 18.5348C9.04964 18.144 8.84205 17.7325 8.6736 17.3061V17.3061ZM11.3239 18.9501C12.0274 17.8375 12.4481 16.5738 12.5569 15.2606L14.9556 16.8726L11.1766 19.1831L11.3239 18.9501ZM13.4891 6.79855H14.3665V8.02228H13.931C13.6874 8.02228 13.4891 7.81834 13.4891 7.56763V6.79855H13.4891ZM2.47744 3.22102L9.98443 0.764219C9.99405 0.761071 10.0044 0.76102 10.0142 0.76427L17.5211 3.22102C17.5366 3.22609 17.5579 3.233 17.5552 3.27266C17.5525 3.31227 17.5305 3.31608 17.5144 3.31892L15.0324 3.75386L14.1006 3.63529C13.8979 3.60944 13.713 3.75782 13.6879 3.96653C13.6628 4.1753 13.8069 4.36542 14.0098 4.39122L14.6717 4.47546V6.03688L5.32845 6.03653V4.47541L9.15876 3.98776C9.71668 3.91682 10.2823 3.91682 10.8398 3.98776L12.2895 4.17225C12.4924 4.1981 12.6772 4.04976 12.7023 3.84105C12.7274 3.63229 12.5833 3.44217 12.3804 3.41632L10.9307 3.23183C10.3129 3.15317 9.68612 3.15317 9.0679 3.23183L4.96677 3.75396L2.48405 3.31892C2.46796 3.31608 2.446 3.31227 2.44328 3.27266C2.44062 3.233 2.46189 3.22604 2.47744 3.22102V3.22102ZM5.63262 8.02228L5.63213 6.79855H6.5109V7.56768C6.5109 7.81834 6.31269 8.02233 6.06897 8.02233H5.63262V8.02228ZM6.44733 10.5737C6.42828 10.2636 6.17775 10.0207 5.87703 10.0207C5.74234 10.0207 5.63277 9.90794 5.63277 9.76941V8.784H6.06897C6.72081 8.784 7.25118 8.23835 7.25118 7.56768V6.79855H12.7488V7.56768C12.7488 8.23835 13.2792 8.784 13.931 8.784H14.3672V9.76941C14.3672 9.90794 14.2577 10.0207 14.123 10.0207C13.8222 10.0207 13.5717 10.2636 13.5527 10.5738C13.4348 12.4968 11.8742 14.0032 9.99997 14.0032C8.12571 14.0032 6.56524 12.4968 6.44733 10.5737V10.5737ZM10 14.7649C10.6584 14.7649 11.2841 14.61 11.8448 14.3346V14.576C11.8448 15.2272 11.7594 15.8695 11.595 16.489C10.5891 16.6864 9.45179 16.6943 8.40501 16.489C8.24061 15.8696 8.15522 15.2272 8.15522 14.576C8.15522 14.5679 8.15414 14.5601 8.15364 14.5521C8.15354 14.5505 8.15369 14.5489 8.15359 14.5474V14.3339C8.71471 14.6097 9.34103 14.7649 10 14.7649V14.7649Z" fill="#31FFEE"/>
</svg>
