<svg width="65" height="65" viewBox="0 0 65 65" fill="none" xmlns="http://www.w3.org/2000/svg">
<path d="M38.4419 33.314C37.2567 32.924 35.5504 33.0078 33.3232 33.0078H24.375V44.6875H33.9442C35.4392 44.6875 36.4894 44.5275 37.0942 44.4158C38.1601 44.2249 39.0513 43.8552 39.7673 43.4093C40.4828 42.9645 41.0714 42.2896 41.5335 41.4385C41.9946 40.5874 42.2256 39.5916 42.2256 38.478C42.2256 37.1739 41.8915 36.1725 41.2227 35.2097C40.5544 34.2469 39.6277 33.704 38.4419 33.314V33.314ZM37.2135 27.9739C38.3901 27.6245 39.2773 27.0141 39.8739 26.2031C40.4711 25.3916 40.7692 24.3593 40.7692 23.1339C40.7692 21.973 40.4904 20.9432 39.9334 20.0596C39.3763 19.176 38.5816 18.8343 37.5471 18.5077C36.5127 18.1822 34.7389 18.2812 32.2253 18.2812H24.375V28.4375H32.7981C34.8507 28.4375 36.3218 28.2445 37.2135 27.9739V27.9739ZM63.9844 9.45801C63.9844 4.79527 60.2047 1.01562 55.542 1.01562H8.9502C4.28746 1.01562 0.507812 4.79527 0.507812 9.45801V56.0498C0.507812 60.7125 4.28746 64.4922 8.9502 64.4922H55.542C60.2047 64.4922 63.9844 60.7125 63.9844 56.0498V9.45801ZM45.9839 43.0346C45.2923 44.4427 44.4366 45.5284 43.4185 46.2922C42.3998 47.0559 41.1227 47.7039 39.5875 48.0939C38.0529 48.4844 36.171 48.75 33.9442 48.75H19.8047V13.7109H33.7289C36.402 13.7109 38.5455 14.0202 40.1604 14.7276C41.7757 15.436 43.0402 16.5034 43.9557 17.975C44.8703 19.4467 45.3279 20.9747 45.3279 22.5814C45.3279 24.0769 44.9216 25.48 44.1106 26.8003C43.2991 28.1216 42.0738 29.184 40.4356 29.9955C42.5511 30.616 44.1782 31.6733 45.3157 33.1683C46.4532 34.6638 47.0219 36.4295 47.0219 38.4658C47.0219 40.1045 46.6761 41.6269 45.9839 43.0346V43.0346Z" fill="#5B4282"/>
</svg>
