<svg width="25" height="20" viewBox="0 0 25 20" fill="none" xmlns="http://www.w3.org/2000/svg">
<path d="M23.3871 0H1.6129C1.18531 0.000544743 0.775384 0.165985 0.473027 0.460042C0.17067 0.754099 0.000560118 1.15277 0 1.56863V14.902C0.000560118 15.3178 0.17067 15.7165 0.473027 16.0105C0.775384 16.3046 1.18531 16.47 1.6129 16.4706H9.92439L9.38659 18.0392H8.06452C7.95757 18.0392 7.85501 18.0805 7.77939 18.1541C7.70377 18.2276 7.66129 18.3274 7.66129 18.4314V19.2157H4.03226C3.92532 19.2157 3.82275 19.257 3.74713 19.3305C3.67151 19.4041 3.62903 19.5038 3.62903 19.6078C3.62903 19.7118 3.67151 19.8116 3.74713 19.8851C3.82275 19.9587 3.92532 20 4.03226 20H21.7742C21.8811 20 21.9837 19.9587 22.0593 19.8851C22.1349 19.8116 22.1774 19.7118 22.1774 19.6078C22.1774 19.5038 22.1349 19.4041 22.0593 19.3305C21.9837 19.257 21.8811 19.2157 21.7742 19.2157H17.3387V18.4314C17.3387 18.3274 17.2962 18.2276 17.2206 18.1541C17.145 18.0805 17.0424 18.0392 16.9355 18.0392H15.6134L15.0756 16.4706H23.3871C23.8147 16.47 24.2246 16.3046 24.527 16.0105C24.8293 15.7165 24.9994 15.3178 25 14.902V1.56863C24.9994 1.15277 24.8293 0.754099 24.527 0.460042C24.2246 0.165985 23.8147 0.000544743 23.3871 0ZM16.5323 18.8235V19.2157H8.46774V18.8235H16.5323ZM10.2369 18.0392L10.7747 16.4706H14.2253L14.7631 18.0392H10.2369ZM24.1935 14.902C24.1933 15.1099 24.1082 15.3092 23.957 15.4563C23.8059 15.6033 23.6009 15.686 23.3871 15.6863H1.6129C1.3991 15.686 1.19414 15.6033 1.04297 15.4563C0.891787 15.3092 0.806732 15.1099 0.806452 14.902V14.1176H24.1935V14.902ZM6.8377 9.80392L6.68649 13.3333H6.21673L6.06552 9.80392H6.8377ZM6.12097 9.01961L6.39012 7.45098H6.5131L6.78226 9.01961H6.12097ZM6.45161 6.66667C6.01462 6.66667 5.64516 6.12794 5.64516 5.4902C5.64516 5.08775 6.06754 4.50294 6.4506 4.09069C6.79587 4.46324 7.25806 5.05882 7.25806 5.4902C7.25806 6.12794 6.88861 6.66667 6.45161 6.66667ZM10.8397 5.88235L10.8871 5.975V6.27451H9.27419V5.975L9.32157 5.88235H10.8397ZM9.7248 5.09804L10.0806 4.40637L10.4365 5.09804H9.7248ZM10.8871 7.05882V13.2843C10.8873 13.3007 10.8884 13.3171 10.8906 13.3333H9.27067C9.27286 13.3171 9.27404 13.3007 9.27419 13.2843V7.05882H10.8871ZM14.5161 5.4902H15.7258V6.27451H15.3226C15.2156 6.27451 15.1131 6.31583 15.0375 6.38937C14.9618 6.46291 14.9194 6.56266 14.9194 6.66667C14.9194 6.77067 14.9618 6.87042 15.0375 6.94396C15.1131 7.01751 15.2156 7.05882 15.3226 7.05882H15.7258V7.84314H14.5161C14.4092 7.84314 14.3066 7.88445 14.231 7.958C14.1554 8.03154 14.1129 8.13129 14.1129 8.23529C14.1129 8.3393 14.1554 8.43905 14.231 8.51259C14.3066 8.58614 14.4092 8.62745 14.5161 8.62745H15.7258V9.41176H15.3226C15.2156 9.41176 15.1131 9.45308 15.0375 9.52662C14.9618 9.60017 14.9194 9.69992 14.9194 9.80392C14.9194 9.90793 14.9618 10.0077 15.0375 10.0812C15.1131 10.1548 15.2156 10.1961 15.3226 10.1961H15.7258V10.9804H14.5161C14.4092 10.9804 14.3066 11.0217 14.231 11.0953C14.1554 11.1688 14.1129 11.2685 14.1129 11.3725C14.1129 11.4766 14.1554 11.5763 14.231 11.6498C14.3066 11.7234 14.4092 11.7647 14.5161 11.7647H15.7258V13.3333H12.9032V3.92157H15.7258V4.70588H14.5161C14.4092 4.70588 14.3066 4.7472 14.231 4.82074C14.1554 4.89429 14.1129 4.99403 14.1129 5.09804C14.1129 5.20205 14.1554 5.30179 14.231 5.37534C14.3066 5.44888 14.4092 5.4902 14.5161 5.4902ZM19.3548 10.1961V13.2843C19.355 13.3007 19.3562 13.3171 19.3584 13.3333H17.7384C17.7406 13.3171 17.7418 13.3007 17.7419 13.2843V10.1961H19.3548ZM17.7419 9.41176V9.11226L18.5484 7.54363L19.3548 9.11226V9.41176H17.7419ZM24.1935 13.3333H20.1578C20.16 13.3171 20.1611 13.3007 20.1613 13.2843V9.01961C20.1612 8.95872 20.1467 8.89867 20.119 8.84412L18.9093 6.49118C18.8757 6.42605 18.8242 6.37129 18.7604 6.33303C18.6967 6.29476 18.6233 6.27449 18.5484 6.27449C18.4735 6.27449 18.4001 6.29476 18.3363 6.33303C18.2726 6.37129 18.2211 6.42605 18.1875 6.49118L16.9778 8.84412C16.95 8.89867 16.9355 8.95872 16.9355 9.01961V13.2843C16.9356 13.3007 16.9368 13.3171 16.939 13.3333H16.5323V3.52941C16.5323 3.42541 16.4898 3.32566 16.4142 3.25212C16.3385 3.17857 16.236 3.13725 16.129 3.13725H12.5C12.3931 3.13725 12.2905 3.17857 12.2149 3.25212C12.1393 3.32566 12.0968 3.42541 12.0968 3.52941V13.3333H11.69C11.6922 13.3171 11.6934 13.3007 11.6935 13.2843V5.88235C11.6935 5.82147 11.679 5.76142 11.6512 5.70686L10.4415 3.35392C10.408 3.2888 10.3564 3.23404 10.2927 3.19577C10.229 3.15751 10.1555 3.13724 10.0806 3.13724C10.0057 3.13724 9.93232 3.15751 9.86858 3.19577C9.80485 3.23404 9.75332 3.2888 9.71976 3.35392L8.51008 5.70686C8.48229 5.76142 8.4678 5.82147 8.46774 5.88235V13.2843C8.4679 13.3007 8.46907 13.3171 8.47127 13.3333H7.49345L7.66079 9.42794C7.66129 9.41912 7.66079 9.41029 7.66079 9.40098V9.38922C7.65985 9.37541 7.65817 9.36167 7.65575 9.34804V9.34706L7.28276 7.1701C7.75101 6.82647 8.06452 6.20196 8.06452 5.4902C8.06452 4.48235 6.86341 3.36618 6.72631 3.24216C6.6516 3.1748 6.55349 3.13738 6.45161 3.13738C6.34974 3.13738 6.25163 3.1748 6.17692 3.24216C6.03982 3.36618 4.83871 4.48235 4.83871 5.4902C4.83871 6.20196 5.15222 6.82647 5.62046 7.1701L5.24748 9.34706V9.34804C5.24506 9.36167 5.24337 9.37541 5.24244 9.38922V9.40098C5.24244 9.41029 5.24194 9.41912 5.24244 9.42794L5.40978 13.3333H0.806452V1.56863C0.806732 1.3607 0.891787 1.16136 1.04297 1.01433C1.19414 0.867306 1.3991 0.784586 1.6129 0.784314H23.3871C23.6009 0.784586 23.8059 0.867306 23.957 1.01433C24.1082 1.16136 24.1933 1.3607 24.1935 1.56863V13.3333Z" fill="#FEE"/>
<path d="M4.43537 14.5098H2.01602C1.90908 14.5098 1.80651 14.5511 1.7309 14.6246C1.65528 14.6982 1.61279 14.7979 1.61279 14.9019C1.61279 15.0059 1.65528 15.1057 1.7309 15.1792C1.80651 15.2528 1.90908 15.2941 2.01602 15.2941H4.43537C4.54232 15.2941 4.64488 15.2528 4.7205 15.1792C4.79612 15.1057 4.8386 15.0059 4.8386 14.9019C4.8386 14.7979 4.79612 14.6982 4.7205 14.6246C4.64488 14.5511 4.54232 14.5098 4.43537 14.5098Z" fill="#FEE"/>
<path d="M6.04815 14.5098H5.64493C5.53798 14.5098 5.43542 14.5511 5.3598 14.6246C5.28418 14.6982 5.2417 14.7979 5.2417 14.9019C5.2417 15.0059 5.28418 15.1057 5.3598 15.1792C5.43542 15.2528 5.53798 15.2941 5.64493 15.2941H6.04815C6.15509 15.2941 6.25766 15.2528 6.33327 15.1792C6.40889 15.1057 6.45138 15.0059 6.45138 14.9019C6.45138 14.7979 6.40889 14.6982 6.33327 14.6246C6.25766 14.5511 6.15509 14.5098 6.04815 14.5098Z" fill="#FEE"/>
<path d="M10.0805 7.45117C9.97353 7.45117 9.87097 7.49249 9.79535 7.56603C9.71973 7.63958 9.67725 7.73932 9.67725 7.84333V12.1571C9.67725 12.2611 9.71973 12.3608 9.79535 12.4344C9.87097 12.5079 9.97353 12.5492 10.0805 12.5492C10.1874 12.5492 10.29 12.5079 10.3656 12.4344C10.4412 12.3608 10.4837 12.2611 10.4837 12.1571V7.84333C10.4837 7.73932 10.4412 7.63958 10.3656 7.56603C10.29 7.49249 10.1874 7.45117 10.0805 7.45117Z" fill="#FEE"/>
<path d="M18.5482 10.5879C18.4413 10.5879 18.3387 10.6292 18.2631 10.7028C18.1875 10.7763 18.145 10.876 18.145 10.98V12.1565C18.145 12.2605 18.1875 12.3603 18.2631 12.4338C18.3387 12.5074 18.4413 12.5487 18.5482 12.5487C18.6552 12.5487 18.7577 12.5074 18.8334 12.4338C18.909 12.3603 18.9515 12.2605 18.9515 12.1565V10.98C18.9515 10.876 18.909 10.7763 18.8334 10.7028C18.7577 10.6292 18.6552 10.5879 18.5482 10.5879Z" fill="#FEE"/>
<path d="M2.01602 2.35365H5.24183C5.34877 2.35365 5.45133 2.31233 5.52695 2.23879C5.60257 2.16525 5.64505 2.0655 5.64505 1.96149C5.64505 1.85749 5.60257 1.75774 5.52695 1.6842C5.45133 1.61065 5.34877 1.56934 5.24183 1.56934H2.01602C1.90908 1.56934 1.80651 1.61065 1.7309 1.6842C1.65528 1.75774 1.61279 1.85749 1.61279 1.96149C1.61279 2.0655 1.65528 2.16525 1.7309 2.23879C1.80651 2.31233 1.90908 2.35365 2.01602 2.35365Z" fill="#FEE"/>
<path d="M2.01602 3.52943H2.82247C2.92941 3.52943 3.03197 3.48811 3.10759 3.41457C3.18321 3.34103 3.2257 3.24128 3.2257 3.13727C3.2257 3.03327 3.18321 2.93352 3.10759 2.85998C3.03197 2.78643 2.92941 2.74512 2.82247 2.74512H2.01602C1.90908 2.74512 1.80651 2.78643 1.7309 2.85998C1.65528 2.93352 1.61279 3.03327 1.61279 3.13727C1.61279 3.24128 1.65528 3.34103 1.7309 3.41457C1.80651 3.48811 1.90908 3.52943 2.01602 3.52943Z" fill="#FEE"/>
<path d="M21.371 12.549H22.9839C23.0908 12.549 23.1934 12.5076 23.269 12.4341C23.3446 12.3606 23.3871 12.2608 23.3871 12.1568C23.3871 12.0528 23.3446 11.9531 23.269 11.8795C23.1934 11.806 23.0908 11.7646 22.9839 11.7646H21.371C21.2641 11.7646 21.1615 11.806 21.0859 11.8795C21.0103 11.9531 20.9678 12.0528 20.9678 12.1568C20.9678 12.2608 21.0103 12.3606 21.0859 12.4341C21.1615 12.5076 21.2641 12.549 21.371 12.549Z" fill="#FEE"/>
<path d="M22.5805 11.3722H22.9837C23.0906 11.3722 23.1932 11.3309 23.2688 11.2573C23.3444 11.1838 23.3869 11.0841 23.3869 10.98C23.3869 10.876 23.3444 10.7763 23.2688 10.7028C23.1932 10.6292 23.0906 10.5879 22.9837 10.5879H22.5805C22.4735 10.5879 22.371 10.6292 22.2953 10.7028C22.2197 10.7763 22.1772 10.876 22.1772 10.98C22.1772 11.0841 22.2197 11.1838 22.2953 11.2573C22.371 11.3309 22.4735 11.3722 22.5805 11.3722Z" fill="#FEE"/>
</svg>
