<svg width="65" height="65" viewBox="0 0 65 65" fill="none" xmlns="http://www.w3.org/2000/svg">
<path d="M63.3455 29.6447L35.3564 1.65709C33.7456 0.045293 31.1314 0.045293 29.5181 1.65709L23.7072 7.46951L31.0796 14.8419C32.7935 14.2635 34.7577 14.6515 36.1232 16.017C37.4958 17.3912 37.8813 19.3721 37.2876 21.0916L44.393 28.1979C46.1119 27.6053 48.0959 27.9882 49.468 29.3633C51.3876 31.2813 51.3876 34.3907 49.468 36.3097C47.5485 38.2292 44.4402 38.2292 42.5196 36.3097C41.0764 34.8655 40.7194 32.7454 41.4507 30.967L34.8247 24.3406L34.8237 41.7794C35.2919 42.0104 35.7332 42.3192 36.1232 42.7076C38.0422 44.6256 38.0422 47.734 36.1232 49.656C34.2042 51.574 31.0939 51.574 29.1769 49.656C27.2583 47.7345 27.1009 44.6262 29.0189 42.7076C29.4932 42.2338 29.9609 41.8758 30.4687 41.6362V24.0359C29.9609 23.7962 29.4937 23.4407 29.0184 22.9639C27.5656 21.5115 27.2939 19.3787 28.0394 17.5933L20.8117 10.3249L1.63971 29.5152C0.0274045 31.1285 0.0375608 33.7427 1.64987 35.355L29.6435 63.3426C31.2548 64.9544 33.8711 64.9544 35.4849 63.3426L63.3435 35.485C64.9558 33.8722 64.9573 31.2565 63.3455 29.6447V29.6447Z" fill="#F34F29"/>
</svg>
