<svg width="65" height="65" viewBox="0 0 65 65" fill="none" xmlns="http://www.w3.org/2000/svg">
<g clip-path="url(#clip0_58_308)">
<path d="M1.01563 32.4987C1.01563 44.9604 8.25704 55.7311 18.7596 60.8326L3.74055 19.6855C1.94124 23.7174 1.01272 28.0835 1.01563 32.4987ZM33.0525 35.252L23.6052 62.7023C26.4935 63.5532 29.489 63.9852 32.5 63.9851C36.0608 63.9863 39.596 63.3829 42.9548 62.2006C42.868 62.0626 42.7929 61.9175 42.7304 61.767L33.0525 35.252Z" fill="#1C769B"/>
<path d="M53.755 30.9116C53.755 27.0187 52.3555 24.3253 51.1591 22.2291C49.5615 19.6321 48.0645 17.4363 48.0645 14.8444C48.0645 11.9489 50.2592 9.25445 53.3518 9.25445C53.492 9.25445 53.624 9.27374 53.758 9.28085C47.9613 3.954 40.3726 1.00312 32.5 1.01468C21.4987 1.01468 11.8239 6.65851 6.19531 15.205C6.93469 15.2284 7.63039 15.2436 8.22047 15.2436C11.5121 15.2436 16.6126 14.8434 16.6126 14.8434C18.3087 14.7419 18.5077 17.2373 16.8116 17.4363C16.8116 17.4363 15.1064 17.6374 13.2082 17.738L24.6736 51.8396L31.5646 31.1757L26.6622 17.738C24.9641 17.6374 23.3573 17.4363 23.3573 17.4363C21.6612 17.3358 21.8593 14.7429 23.5584 14.8434C23.5584 14.8434 28.7574 15.2436 31.851 15.2436C35.1437 15.2436 40.2421 14.8434 40.2421 14.8434C41.9402 14.7419 42.1393 17.2373 40.4422 17.4363C40.4422 17.4363 38.7349 17.6374 36.8398 17.738L48.2178 51.5806L51.3612 41.0882C52.717 36.7312 53.755 33.6051 53.755 30.9116ZM60.3413 20.6315C60.3413 23.8256 59.7441 27.4169 57.9455 31.909L48.3295 59.7117C57.6895 54.2558 63.9844 44.1137 63.9844 32.5001C63.9922 27.2201 62.6657 22.0238 60.128 17.3937C60.2652 18.3971 60.3413 19.4716 60.3413 20.6315Z" fill="#1C769B"/>
<path d="M48.0655 14.8434C48.0655 11.9479 50.2602 9.25343 53.3528 9.25343C53.493 9.25343 53.625 9.27273 53.7591 9.27984C47.9615 3.9538 40.3726 1.00338 32.5 1.01468C21.4987 1.01468 11.8239 6.65851 6.19531 15.205C6.93469 15.2284 7.63039 15.2436 8.22047 15.2436C11.5121 15.2436 16.6126 14.8434 16.6126 14.8434C18.3087 14.7419 18.5077 17.2373 16.8116 17.4363C16.8116 17.4363 15.1064 17.6374 13.2082 17.738L17.5805 30.742C20.6527 31.8235 23.8866 32.3741 27.1436 32.3701C28.5229 32.3701 29.9005 32.2724 31.266 32.0776L31.5656 31.1767L26.6632 17.739C24.9651 17.6384 23.3584 17.4373 23.3584 17.4373C21.6623 17.3368 21.8603 14.7439 23.5595 14.8444C23.5595 14.8444 28.7584 15.2446 31.852 15.2446C35.1447 15.2446 40.2431 14.8444 40.2431 14.8444C41.9412 14.7429 42.1403 17.2383 40.4432 17.4373C40.4432 17.4373 38.7359 17.6384 36.8408 17.739L40.6291 29.0084C44.4742 26.9405 47.7323 24.0206 50.1079 20.5177C48.9633 18.6175 48.0655 16.8483 48.0655 14.8434Z" fill="#2795B7"/>
<path d="M32.5 1.01467C22.621 1.01467 13.8216 5.57483 8.04883 12.6923C13.1158 13.7455 18.6804 14.3295 24.5202 14.3295C35.5784 14.3295 45.6534 12.2404 53.2289 8.81365C47.4983 3.77854 40.1284 1.00571 32.5 1.01467Z" fill="#3FB5D1"/>
</g>
<defs>
<clipPath id="clip0_58_308">
<rect width="65" height="65" fill="white"/>
</clipPath>
</defs>
</svg>
